<svg width="86" height="70" viewBox="0 0 86 70" fill="none" xmlns="http://www.w3.org/2000/svg">
<path d="M52.5448 21.366C52.781 21.8061 53.0127 22.249 53.2407 22.6932C53.4434 23.0884 54.0374 22.7394 53.8347 22.3452C53.5885 21.8669 53.3428 21.3869 53.0875 20.9123C52.8739 20.5153 52.6536 20.1219 52.4178 19.7389C52.304 19.5561 53.2951 18.1749 53.477 17.9045C54.1217 16.9485 54.8149 16.0224 55.5277 15.1141C55.423 14.9425 55.3323 14.7969 55.2588 14.6944C55.2126 14.6404 55.16 14.5905 55.1051 14.5424C54.2659 15.6077 53.4538 16.6971 52.7039 17.8242C52.4749 18.1695 52.0614 18.6972 51.8606 19.2126C51.764 19.4608 51.7164 19.7063 51.7631 19.9259C51.866 20.4082 52.3113 20.9341 52.5448 21.366Z" fill="white"/>
<path d="M75.9635 32.188C76.397 31.5551 76.7588 31.1721 77.394 31.0056C77.4443 31.4217 77.5672 31.8341 77.9213 32.0896C78.6409 32.6082 79.1188 31.7552 79.1482 31.1717C80.0981 31.1526 81.5658 31.1091 82.3969 31.0083C83.5118 30.8731 83.8242 30.3586 83.5354 29.6753C83.2461 28.9924 82.3914 29.129 81.2216 29.3368C80.7537 29.4203 79.5468 29.5419 78.786 29.614C78.7175 29.4734 78.6395 29.3441 78.5506 29.2406C78.3239 28.9743 78.031 28.8672 77.6688 29.1068C77.341 29.3232 77.3124 29.83 77.3346 30.2724C76.8672 30.3922 76.4401 30.5886 76.1014 30.9167C75.5704 31.4312 75.142 32.2048 74.6722 32.9385C74.8146 33.1363 74.9397 33.3514 75.0431 33.5833C75.3782 33.1005 75.6779 32.6055 75.9635 32.188Z" fill="white"/>
<path d="M65.0069 33.4436C65.9949 33.8483 67.0245 34.3361 68.0801 34.7499C68.1245 34.4962 68.1843 34.2576 68.2578 34.033C67.0771 33.5897 65.9228 33.0751 64.7539 32.6024C63.8022 32.2167 62.8868 31.8945 61.882 31.7879C61.7873 31.3673 61.62 30.8972 61.3756 30.61C61.1484 30.3446 60.8555 30.2366 60.4942 30.4771C60.2666 30.6277 60.1831 30.9172 60.16 31.2294C59.6114 31.2139 58.9372 31.1903 58.5087 31.1595C58.4108 31.1527 58.3251 31.1454 58.2566 31.1373C57.1925 31.0143 56.4145 30.9394 56.1519 31.6436C55.8885 32.3474 56.1728 32.8397 57.188 32.8941C57.747 32.9236 58.623 32.8973 59.3911 32.861C59.7297 32.8451 60.048 32.8274 60.3078 32.8115C60.3872 33.0647 60.5182 33.2957 60.7463 33.4599C61.483 33.9903 61.9677 33.0829 61.9754 32.4998C61.9754 32.4926 61.975 32.4844 61.975 32.4776C63.0305 32.5906 64.0334 33.0452 65.0069 33.4436Z" fill="white"/>
<path d="M8.48275 61.1446C7.23408 62.0366 5.91196 59.537 7.41453 58.9208C8.00078 58.718 8.64597 58.9258 8.8763 59.5293C9.08532 60.0747 8.97424 60.7929 8.48275 61.1446ZM7.36103 58.5774C7.34924 58.5792 7.33655 58.5833 7.32295 58.5887C5.57825 59.3042 6.5644 62.0302 8.36033 61.5702C9.22225 61.3496 9.40996 60.3179 9.24809 59.5719C9.0631 58.7194 8.15267 58.3251 7.36103 58.5774Z" fill="white"/>
<path d="M8.27413 62.5279C8.00209 62.743 8.17529 63.9685 8.59332 64.116C9.03902 64.2721 8.9769 63.6604 8.78239 63.1468C8.63458 62.7552 8.40924 62.4208 8.27413 62.5279Z" fill="white"/>
<path d="M10.3176 61.9661C9.97031 61.7419 9.61892 61.6271 9.61756 61.8236C9.61394 62.2202 10.5425 63.1449 10.8717 62.9493C11.224 62.7411 10.7737 62.2601 10.3176 61.9661Z" fill="white"/>
<path d="M9.8769 60.178C10.144 60.5228 11.2838 60.6059 11.3328 60.1826C11.3845 59.7306 10.8091 59.6626 10.3589 59.761C10.0152 59.8354 9.74451 60.007 9.8769 60.178Z" fill="white"/>
<path d="M9.70478 57.4368C9.42593 57.0071 9.06367 57.3909 8.88321 57.8233C8.74492 58.1536 8.71183 58.5107 8.90135 58.5566C9.28311 58.6482 9.96639 57.8397 9.70478 57.4368Z" fill="white"/>
<path d="M7.2617 57.9077C7.53374 57.6922 7.36054 56.4671 6.9425 56.3201C6.49726 56.1635 6.55893 56.7756 6.75389 57.2888C6.9017 57.6804 7.12659 58.0143 7.2617 57.9077Z" fill="white"/>
<path d="M5.91871 58.6124C5.92188 58.2158 4.99331 57.2916 4.66414 57.4867C4.3123 57.6949 4.76253 58.1759 5.21865 58.4699C5.56596 58.6936 5.91735 58.8093 5.91871 58.6124Z" fill="white"/>
<path d="M4.2034 60.2527C4.15216 60.7051 4.72617 60.7727 5.17685 60.6747C5.52008 60.5998 5.79167 60.4292 5.65927 60.2577C5.39131 59.9124 4.25191 59.8298 4.2034 60.2527Z" fill="white"/>
<path d="M6.63497 61.8797C6.2532 61.7876 5.56992 62.5961 5.83108 62.999C6.10993 63.4292 6.47219 63.0449 6.6531 62.612C6.79139 62.2821 6.82449 61.9251 6.63497 61.8797Z" fill="white"/>
<path d="M49.2209 44.3341C49.1243 44.1058 48.7244 44.1099 48.6269 44.3341C48.3317 45.007 48.0402 45.6853 47.7246 46.3491C46.7616 45.9802 45.9133 45.09 45.2237 44.3708C44.9997 44.1367 44.5145 44.3763 44.6492 44.7057C45.2096 46.075 45.77 47.4453 46.3304 48.8147C46.4964 49.2203 47.1624 49.0424 46.9937 48.6318C46.6347 47.7547 46.276 46.8777 45.9174 46.0006C46.4923 46.4934 47.1284 46.9194 47.8126 47.1036C47.9531 47.1413 48.1336 47.0828 48.2012 46.9453C48.4542 46.4276 48.6881 45.9003 48.9193 45.3718C49.4444 46.6118 49.9708 47.8523 50.4967 49.0923C50.6695 49.4998 51.2621 49.1481 51.0907 48.7448C50.4673 47.2742 49.8438 45.8042 49.2209 44.3341Z" fill="white"/>
<path d="M54.2505 43.9787C54.0777 43.5703 53.4852 43.9219 53.6565 44.3258C54.104 45.3825 54.5516 46.4383 54.9995 47.4942C53.6788 46.4696 52.358 45.4447 51.0368 44.4197C50.7271 44.1797 50.3277 44.4691 50.4968 44.8376C51.0948 46.1389 51.6919 47.4397 52.29 48.741C52.4754 49.1439 53.068 48.7936 52.8844 48.3935C52.4854 47.525 52.0873 46.6575 51.6879 45.79C52.986 46.7968 54.284 47.8036 55.5821 48.8104C55.8982 49.0559 56.2781 48.7614 56.1221 48.3935C55.4983 46.922 54.8748 45.4501 54.2505 43.9787Z" fill="white"/>
<path d="M60.2182 47.6459C59.5531 47.7262 58.887 47.8069 58.2219 47.8872C58.0138 47.9126 57.8057 47.9376 57.598 47.963C57.5636 47.8832 57.5291 47.8038 57.4951 47.7243C56.9587 46.4761 56.4233 45.227 55.8873 43.9788C55.7119 43.5714 55.1193 43.923 55.2925 44.3259C55.8914 45.7193 56.4895 47.1132 57.0879 48.5066C57.1297 48.6046 57.2793 48.6903 57.3849 48.6772C58.3289 48.5628 59.2733 48.4485 60.2182 48.3342C60.653 48.282 60.658 47.5923 60.2182 47.6459Z" fill="white"/>
<path d="M78.3176 62.8942C77.5196 63.7046 76.5756 64.1148 75.5115 64.1148C74.7026 64.1148 73.8271 63.8725 72.9099 63.3938C70.447 62.107 68.8442 58.93 69.0995 55.8428C69.1784 54.1958 69.7945 52.6413 70.7902 51.5796L70.8786 51.4852L70.9312 51.6027C71.4009 52.6508 71.8335 53.61 72.1989 54.4131L72.2239 54.4676L72.1817 54.5098C71.2073 55.4835 70.9271 56.5969 71.3483 57.8143C71.9854 59.3955 73.381 60.3774 74.9901 60.3774C75.4362 60.3774 75.8851 60.3007 76.3217 60.1492C78.2532 59.42 78.645 57.5479 78.3938 56.1654C78.1249 54.6872 76.9787 53.0973 75.0975 53.0973C74.8958 53.0973 74.6886 53.1154 74.4927 53.1486L74.2474 53.2334L74.2152 53.1613C73.8312 52.2969 73.4004 51.3277 72.9457 50.3078L72.9058 50.2179L72.9992 50.1898C73.3361 50.0882 73.6834 50.0242 74.0307 50.0001C74.1408 49.9929 74.2537 49.9888 74.3653 49.9888C75.7141 49.9888 77.1709 50.5609 78.362 51.5587L78.3774 51.5714L78.3856 51.5909C79.2765 53.6803 80.0954 55.5665 80.4717 56.3941L80.4794 56.4113L80.4799 56.4295C80.5157 58.9872 79.6669 61.5249 78.3176 62.8942ZM57.9975 38.2463C57.5023 38.2907 57.0131 38.313 56.5438 38.313C56.2247 38.313 55.9041 38.303 55.5931 38.2821C54.0529 38.1809 52.3694 37.6183 50.5871 37.0221C48.5345 36.3356 46.4117 35.626 44.4326 35.626C44.034 35.626 43.6477 35.6555 43.2841 35.714L43.2265 35.7231L43.1961 35.6718C42.6552 34.7403 42.079 34.1055 41.4324 33.7312C41.0348 33.4966 40.5718 33.3219 40.0192 33.1972L39.9362 33.1785L39.9539 33.0951C40.0572 32.6155 40.1656 32.0615 40.2799 31.4734C40.7451 29.0841 41.383 25.8132 42.75 21.9628L42.8416 21.9614L50.7938 21.8707L57.9902 38.161L58.0265 38.2435L57.9975 38.2463ZM38.4581 17.3797C38.4282 17.3797 38.3969 17.3797 38.366 17.3806C38.8766 16.131 39.8922 15.0076 40.9917 14.0085C41.0026 14.0148 41.0139 14.0225 41.0248 14.0293C41.0516 14.0266 41.0778 14.023 41.1046 14.0203C43.266 13.7761 45.8191 13.812 48.0748 13.8955C48.559 13.8955 49.2554 13.8469 50.0307 13.8093C49.9972 13.7811 49.9609 13.7548 49.9251 13.7285C49.9609 13.7267 49.9976 13.7253 50.0335 13.7231C50.0539 13.7408 50.0756 13.7575 50.0956 13.7757C50.1074 13.7848 50.1178 13.7952 50.1287 13.8043C51.9459 13.7203 54.1581 13.7135 55.1061 14.5425C55.1279 14.562 55.146 14.5833 55.1669 14.6033C54.2143 15.8129 53.453 16.8538 52.7756 17.8724C52.7262 17.9477 52.6668 18.0321 52.6033 18.1229C52.3585 18.4713 52.0266 18.9464 51.8924 19.3861C51.8715 19.3597 51.8498 19.3325 51.8294 19.3067C51.8398 19.2754 51.8489 19.244 51.8607 19.2127C51.2069 18.4237 50.5975 17.9078 50.0747 17.813C48.967 17.5353 44.2013 17.3511 38.4581 17.3797ZM36.9242 32.9762C36.6662 32.9807 36.411 32.9875 36.1612 32.9934C35.9286 32.9998 35.701 33.0057 35.4792 33.0098C35.4665 32.9807 35.4534 32.953 35.4407 32.9245C34.81 31.5188 34.1762 30.0687 33.5899 28.7039C33.5736 28.6662 33.5582 28.6299 33.5423 28.5932L33.6207 28.6231C35.3926 29.3141 36.2954 31.1703 37.0022 32.8564L37.0512 32.9735L36.9242 32.9762ZM31.5333 32.944C30.9098 32.929 30.4066 32.9222 29.9504 32.9222C29.0056 32.9222 28.1867 32.9517 27.4481 33.0138C26.7735 33.0851 26.0657 33.1187 25.3158 33.155C23.8894 33.2235 22.4131 33.2947 21.1191 33.6359C19.2257 34.1459 17.8705 35.0411 16.7252 36.5366L16.5751 36.4558C18.2046 31.7829 19.8595 29.2374 21.4945 28.8894C23.4437 28.4752 25.7243 28.418 27.8984 28.418C28.1994 28.418 28.4941 28.4194 28.7811 28.4203C29.0532 28.4207 29.318 28.4221 29.5741 28.4221L29.8194 28.4216C29.8298 28.4502 29.8407 28.4788 29.8521 28.5074C30.3771 29.8668 30.9525 31.3546 31.5351 32.8578C31.5464 32.8868 31.5582 32.9154 31.5686 32.9444L31.5333 32.944ZM12.4011 42.0458C12.0356 42.2849 11.6906 42.5104 11.3836 42.7736C10.9048 43.2532 10.6781 44.6275 10.7285 46.7505L10.7294 46.7764C10.7003 46.7691 10.6709 46.7596 10.6428 46.7523C10.3666 46.6811 10.0978 46.6185 9.83707 46.5627C9.79944 46.5545 9.76453 46.5486 9.72735 46.5413C8.99465 45.2155 8.63238 43.4769 9.38684 42.1824C9.6072 41.8049 9.87244 41.4537 10.1481 41.1156C10.1844 41.1143 10.222 41.1143 10.2592 41.1129C10.8881 41.0866 11.4584 40.9986 11.8339 40.8157C11.8774 40.7939 11.9241 40.7463 11.9721 40.6783C11.9903 40.6519 12.0098 40.622 12.0288 40.5889L12.0524 40.646C12.2161 41.0558 12.358 41.4873 12.4736 41.9292L12.489 41.9891L12.4011 42.0458ZM8.97425 46.4039C8.53762 46.3381 8.15041 46.305 7.83439 46.3099C7.79857 46.3104 7.76774 46.3131 7.73328 46.3154C6.88814 45.054 7.2028 43.2999 7.49207 42.308C7.63399 41.8203 7.88608 41.4029 8.17943 41.0172C8.21162 41.0213 8.24382 41.0254 8.27691 41.0294C8.62785 41.0689 9.001 41.0993 9.37732 41.1129C9.41314 41.1143 9.44805 41.1143 9.48432 41.1156C9.17465 41.5204 8.89626 41.9469 8.70674 42.4165C8.19757 43.6774 8.48049 45.1874 9.07853 46.4216C9.04407 46.4152 9.0078 46.4089 8.97425 46.4039ZM84.6824 50.3722C83.4973 48.1031 80.9228 46.0046 78.275 45.1516L78.2373 45.1393L77.4838 43.368C77.5155 43.3698 77.5486 43.3725 77.5799 43.3739C78.3892 43.4247 79.0893 43.4501 79.4352 43.3426C80.1072 43.1338 79.6139 40.8003 78.8862 40.5916C78.0301 40.4015 77.2222 40.5249 76.3739 40.548C76.343 40.5485 76.3122 40.5485 76.2814 40.5498C75.4199 38.5357 74.9216 37.386 74.8005 37.1324L74.7815 37.0929L74.8024 37.0548C75.0318 36.6364 75.18 36.1695 75.244 35.6673C75.3097 35.1486 75.2784 34.6913 75.1882 34.2925C74.8545 34.2022 74.548 34.0266 74.315 33.7416C73.9586 33.3051 73.5433 32.6853 73.6888 32.0955C73.1465 31.7212 72.5208 31.4938 71.9228 31.473C71.8797 31.4716 71.8376 31.4703 71.7945 31.4703C70.5426 31.4703 69.2591 32.1077 68.5762 33.483C68.8297 33.8283 69.0115 34.1926 68.8351 34.6695C68.7209 34.9799 68.4185 35.1541 68.1033 35.2643C68.0952 35.3583 68.087 35.4517 68.0829 35.5502L68.0798 35.6178L68.0127 35.6305C67.6658 35.6958 67.3072 35.7807 66.9141 35.8919L66.8637 35.9059L66.8279 35.8674C66.5459 35.5634 66.1542 35.39 65.7452 35.39C65.0075 35.3932 64.3678 35.9744 64.2875 36.7117L64.2825 36.7662L64.2299 36.7834C63.4528 37.0443 62.77 37.2576 62.1429 37.4359C62.127 37.4105 62.1107 37.3855 62.0953 37.3601C61.2697 36.0334 60.4703 34.7321 59.8346 33.6373C59.1822 33.4549 58.5424 33.1032 58.1353 32.6123C57.7159 32.1059 57.866 31.1849 58.2659 30.6653C56.9587 27.9983 54.9547 23.7859 53.0876 20.9124C53.2662 21.2436 53.4399 21.5789 53.6122 21.9138C53.4149 21.5862 53.2181 21.2713 53.0223 20.97C52.806 20.5685 52.5825 20.1697 52.3444 19.7844C52.2633 19.6533 52.3934 19.3194 53.3025 18.0067C53.3478 17.9423 53.3832 17.8906 53.4068 17.8561C53.9985 16.9786 54.66 16.077 55.4788 15.0348C55.4951 15.0607 55.511 15.0865 55.5287 15.1142C55.8243 15.5988 56.2355 16.3002 56.7075 16.8955C56.7733 16.9259 56.8386 16.9595 56.9025 16.9999C56.9864 17.1002 57.0716 17.1955 57.1587 17.2848C57.0517 17.1936 56.9415 17.1061 56.82 17.0344C57.2947 17.6038 57.8238 18.0444 58.3525 18.0444C58.4572 18.0444 58.6068 18.0389 58.7918 18.0294C58.6499 18.0008 58.5048 17.9818 58.362 17.9582C58.4617 17.9577 58.6009 17.9527 58.7723 17.9441C58.863 17.9632 58.9519 17.9854 59.0376 18.0153C60.9577 17.8996 65.4958 17.4632 66.3587 17.3774C66.457 17.3724 66.5541 17.3711 66.6506 17.3697C66.6189 17.342 66.5867 17.3139 66.5545 17.2862C66.5881 17.2857 66.6212 17.2848 66.6547 17.2844C66.6856 17.3121 66.7164 17.3402 66.7477 17.3679C68.7644 17.357 70.4198 17.9486 71.9577 17.4436C72.9003 17.1342 72.694 16.4237 71.9486 15.543C71.8797 15.5135 71.8149 15.479 71.7487 15.4463C71.7025 15.3946 71.6535 15.3415 71.6032 15.2875C71.6784 15.332 71.755 15.3737 71.8344 15.4118C71.6022 15.151 71.327 14.8764 71.0242 14.5947C70.0262 13.7957 69.3275 12.797 68.5291 11.7983C67.6318 10.7992 66.9331 10.7992 65.6364 10.6994C65.1417 10.6799 63.8423 10.6745 62.074 10.6853C62.1189 10.7148 62.1647 10.7425 62.2105 10.7693C62.1651 10.7697 62.1202 10.7697 62.074 10.7697C62.0323 10.7425 61.9906 10.7148 61.9498 10.6858C59.51 10.7008 56.212 10.7443 52.898 10.8178C52.9497 10.846 53.0028 10.8709 53.0567 10.8963C53.0037 10.8977 52.9511 10.8981 52.899 10.8995C52.894 10.8968 52.8881 10.895 52.8835 10.8922C52.8423 10.87 52.8046 10.8437 52.7643 10.8201C49.6898 10.8891 46.6139 10.9839 44.2059 11.1046C44.2929 11.1295 44.38 11.1518 44.4666 11.1763C44.3963 11.1795 44.3256 11.1826 44.2566 11.1867C44.1732 11.1631 44.0907 11.1404 44.0091 11.115C41.4936 11.2452 39.7535 11.4063 39.5943 11.5982C39.3472 11.8973 38.9518 12.4653 38.7392 12.9994C38.7619 13.0184 38.7854 13.0357 38.8095 13.0538C38.8009 13.0756 38.7922 13.0969 38.7841 13.1178C38.7614 13.1001 38.7378 13.0819 38.7143 13.0633C38.4413 13.797 38.5429 14.4422 39.8931 14.1954C39.9035 14.1931 39.9135 14.1918 39.923 14.19C39.9711 14.1813 40.0219 14.1745 40.0699 14.1654C39.0947 15.1201 38.2037 16.2081 37.7762 17.3847C37.7458 17.3847 37.7159 17.3847 37.6855 17.3851C34.3126 17.4128 30.6537 17.5135 27.226 17.7109C27.1938 17.7127 27.162 17.715 27.1303 17.7168C26.6347 16.7994 26.1237 15.8928 25.62 15.0012C24.9852 13.8764 24.3287 12.7131 23.7193 11.5556C23.6817 11.4835 23.6432 11.4099 23.6055 11.3383C23.7715 11.2371 23.9533 11.115 24.1505 10.9825C25.289 10.2175 27.0097 9.06144 29.7918 9.06144C30.49 9.06144 31.2254 9.1354 31.9794 9.28286C32.397 9.36408 32.9629 9.40718 33.6162 9.40718C36.4191 9.40718 41.0588 8.57867 41.689 6.36039C40.8956 5.82998 39.8791 5.11671 38.926 4.25326C38.9487 4.23375 38.9695 4.21424 38.9881 4.19564C38.975 4.18339 38.9614 4.17069 38.9482 4.15843C38.8943 4.10943 38.8417 4.06088 38.7886 4.01143C38.7646 3.98829 38.7406 3.9656 38.7161 3.94246C38.6653 3.89346 38.6141 3.84445 38.5637 3.79545C38.5402 3.77231 38.5166 3.74962 38.493 3.72603C38.4395 3.67204 38.3855 3.6185 38.3325 3.56405C38.3144 3.54454 38.2958 3.52548 38.2767 3.50688C38.2055 3.43292 38.1348 3.3576 38.0659 3.28137C38.0636 3.27865 38.0609 3.27593 38.0591 3.27321C37.9934 3.20152 37.929 3.12892 37.865 3.05542C37.8433 3.03046 37.8224 3.00551 37.8016 2.98101C37.7576 2.92837 37.7136 2.87665 37.6701 2.82356C37.646 2.79407 37.6216 2.76367 37.598 2.73418C37.5585 2.68427 37.5195 2.63526 37.4815 2.58535C37.457 2.55314 37.4329 2.52138 37.4094 2.49007C37.3717 2.44016 37.3355 2.3898 37.2992 2.33898C37.2765 2.30767 37.2534 2.27591 37.2312 2.24369C37.1931 2.18925 37.1568 2.1348 37.1196 2.07944C37.1011 2.05131 37.082 2.02318 37.0634 1.99505C37.0095 1.91156 36.9573 1.82808 36.9075 1.74323C36.9016 1.7337 36.8966 1.72463 36.8916 1.7151C36.8462 1.63887 36.8032 1.56219 36.761 1.48551C36.7442 1.45466 36.7293 1.42471 36.7134 1.39431C36.683 1.33714 36.6535 1.27906 36.6254 1.22144C36.6087 1.1865 36.5919 1.15157 36.5756 1.11663C36.5502 1.06127 36.5252 1.00683 36.5012 0.951472C36.4849 0.915173 36.4695 0.878421 36.454 0.841215C36.4309 0.785407 36.4092 0.729144 36.3874 0.672428C36.3743 0.637037 36.3597 0.601192 36.347 0.564894C36.3248 0.503186 36.304 0.440572 36.284 0.377957C36.2741 0.347103 36.2632 0.31625 36.2536 0.284489C36.2251 0.190113 36.1979 0.0961908 36.1743 0C32.6641 2.3417 30.0906 1.873 26.1138 1.873C23.6219 1.873 19.7194 1.79632 18.5043 3.56722C18.5084 3.56722 18.5129 3.56722 18.517 3.56722C18.5546 3.56541 18.5936 3.5645 18.6317 3.56314L18.5827 3.62167C18.5383 3.67612 18.5002 3.73193 18.4694 3.78774C18.2295 4.22649 18.2595 4.88894 18.5592 5.75738C19.3735 8.11587 21.942 11.2434 22.7445 11.5878C22.755 11.5923 22.7672 11.596 22.7894 11.6005C22.8257 11.6114 22.8651 11.6168 22.9068 11.6168C22.9794 11.6168 23.0587 11.5992 23.1449 11.5697C23.2179 11.7103 23.2918 11.8505 23.3652 11.9898C23.9633 13.1264 24.6089 14.2694 25.2333 15.3742C25.6744 16.1564 26.1215 16.9486 26.5595 17.7513C26.5277 17.7531 26.496 17.7545 26.4647 17.7567C21.3898 18.0739 16.9228 18.612 14.8055 19.4496C11.5967 20.7178 5.85665 40.5331 6.99923 40.8148C7.14296 40.8507 7.31071 40.8856 7.49616 40.9178C7.52653 40.9233 7.55872 40.9287 7.59046 40.9342C7.28396 41.3697 7.06633 41.872 6.89404 42.534C6.50774 44.0177 6.62472 45.4079 7.19328 46.4148C7.16653 46.427 7.13751 46.4374 7.1153 46.4511C7.02779 46.5051 6.97338 46.5727 6.96477 46.6593C6.92396 47.0545 6.8351 47.9978 6.73716 49.0695C6.76572 49.0686 6.79474 49.0695 6.82285 49.0695C6.82285 49.0723 6.82285 49.0745 6.8224 49.0772L6.8156 49.1548L6.73761 49.1553C5.24365 49.1716 3.97277 49.4175 3.06324 49.8676C2.49467 50.149 2.31875 51.1004 2.39719 51.9185L2.40127 51.9602L2.37135 51.9888C0.500611 53.7915 -0.294203 56.7153 0.246706 59.8129C0.857893 64.1565 3.78143 67.8549 7.19872 68.6076C8.36714 68.8644 9.45531 68.9955 10.4351 68.9955C15.6583 68.9955 16.7379 65.4338 16.9165 63.3112L16.9265 63.1914L17.0072 63.2268C17.0054 63.2572 17.0045 63.2881 17.0017 63.3185C18.2246 63.8557 19.3825 64.1815 20.3646 64.1815C24.8089 64.1815 59.4474 64.2795 63.9751 64.2463C65.0461 64.2391 65.7738 63.2123 66.2548 61.6324C66.2711 61.5784 66.2857 61.5199 66.3015 61.465L66.3382 61.6115C66.8991 63.8462 68.1287 65.5703 70.3264 67.1997C71.9577 68.4089 73.7645 69.0223 75.6983 69.0223C78.2269 69.0223 80.8775 67.9152 82.789 66.0626C86.487 62.4768 86.5804 54.0034 84.6824 50.3722Z" fill="white"/>
<path d="M73.4258 51.174C73.4788 51.2938 73.5319 51.4127 73.5845 51.5302C73.9454 50.9794 74.4292 50.4912 75.0109 50.1182C74.8372 50.096 74.664 50.081 74.4886 50.0769C74.0755 50.3936 73.7182 50.7657 73.4258 51.174Z" fill="white"/>
<path d="M71.0844 56.9908C70.9171 56.9087 70.7552 56.8152 70.6006 56.7099C70.7806 56.6165 70.9475 56.5166 71.0939 56.4146C71.1139 56.2399 71.1502 56.0702 71.2014 55.9055C71.1819 55.9127 71.1624 55.9227 71.1443 55.9395C70.9498 56.1165 70.6455 56.307 70.2914 56.4749C69.8729 56.126 69.5188 55.689 69.2481 55.1931C69.2227 55.3796 69.2037 55.5652 69.1928 55.7471C69.4114 56.0729 69.6648 56.3683 69.9491 56.6242C69.697 56.724 69.4322 56.8066 69.1683 56.8651C69.1733 56.9817 69.181 57.0979 69.191 57.2136C69.5551 57.141 69.9201 57.0212 70.256 56.8751C70.5308 57.0815 70.8269 57.2553 71.1429 57.3878C71.1148 57.2526 71.0953 57.1206 71.0844 56.9908Z" fill="white"/>
<path d="M71.9045 60.3411C72.0591 60.0239 72.1875 59.6981 72.2809 59.3624C72.1843 59.2689 72.0909 59.17 72.002 59.0665C71.8891 59.5606 71.6923 60.0361 71.443 60.4931C71.0653 60.5942 70.6704 60.6464 70.27 60.6464C70.3339 60.7571 70.4001 60.8674 70.4686 60.9749C70.7193 60.9649 70.9674 60.9386 71.2099 60.8919C71.0871 61.0906 70.956 61.2857 70.82 61.4767C70.8921 61.5716 70.966 61.6632 71.0422 61.7535C71.2689 61.4373 71.4842 61.1115 71.6747 60.7753C72.2138 60.6119 72.7143 60.351 73.1441 59.9958C73.0394 59.9395 72.9374 59.8783 72.8376 59.8116C72.5543 60.0307 72.2401 60.2077 71.9045 60.3411Z" fill="white"/>
<path d="M76.329 60.2367C76.2174 60.2744 76.1059 60.3075 75.9943 60.3356C75.9943 60.4867 75.9857 60.6387 75.968 60.7893C75.8701 60.6591 75.7685 60.5312 75.6638 60.4046C75.5255 60.4282 75.3877 60.4445 75.2508 60.4531C75.477 60.7136 75.6883 60.9853 75.8851 61.2671C75.6538 62.2449 75.0694 63.1669 74.2261 63.8357C74.3625 63.8747 74.4968 63.9083 74.6287 63.935C75.3469 63.3035 75.8656 62.4976 76.1308 61.6369C76.5312 62.2712 76.8612 62.9505 77.1142 63.6646C77.2194 63.6143 77.3219 63.5594 77.4217 63.4995C77.126 62.6769 76.7329 61.8973 76.2469 61.1795C76.309 60.8674 76.3362 60.552 76.329 60.2367Z" fill="white"/>
<path d="M78.5315 57.3152C78.5107 57.5371 78.4717 57.7562 78.4132 57.9704C78.522 57.9527 78.6313 57.9372 78.7419 57.9236C79.272 58.4227 79.6823 59.0684 79.9289 59.793C79.9824 59.6147 80.0319 59.4346 80.0754 59.2522C79.8482 58.7404 79.5417 58.2766 79.1731 57.8819C79.5562 57.8519 79.943 57.8365 80.3252 57.8215C80.3374 57.7099 80.3483 57.5983 80.3569 57.4871C79.8605 57.5089 79.3545 57.5271 78.8584 57.5761C78.7533 57.4831 78.6435 57.3964 78.5315 57.3152Z" fill="white"/>
<path d="M79.165 53.6257C79.1152 53.5114 79.0648 53.3943 79.014 53.2755C78.8313 53.2591 78.6491 53.2528 78.4682 53.256C78.5838 53.1148 78.703 52.976 78.8263 52.8403C78.7783 52.7274 78.7289 52.613 78.6799 52.4973C78.4428 52.7523 78.2152 53.0137 78.0052 53.2864C77.6171 53.3308 77.239 53.4216 76.8799 53.5572C76.9901 53.6325 77.0948 53.7138 77.195 53.8013C77.3705 53.7451 77.5514 53.6983 77.7345 53.6643C77.6425 53.8 77.5573 53.9388 77.4779 54.079C77.5604 54.1698 77.6393 54.2641 77.7132 54.3631C77.8524 54.1012 78.017 53.849 78.197 53.6044C78.5162 53.5786 78.8404 53.5854 79.165 53.6257Z" fill="white"/>
<path d="M31.5345 32.8564C30.1598 32.8256 28.7837 32.8174 27.4384 32.929C25.4648 33.1355 23.0722 33.0325 21.0976 33.5525C18.3931 34.2807 16.9367 35.739 15.5861 38.132C14.9617 39.2776 14.8592 40.0059 13.7149 40.9419C12.9858 41.6706 12.05 42.0876 11.3223 42.7124C10.7206 43.3149 10.6023 45.0831 10.6412 46.7519C12.6213 47.2651 14.9087 48.1667 16.1573 49.1658C18.6411 51.1522 20.4728 54.6818 19.4581 62.2799C19.4527 62.3199 31.9108 60.0934 33.4936 57.6932C35.076 55.2934 36.711 45.8458 35.9307 44.0223C35.3594 42.6865 33.4088 37.695 31.5345 32.8564Z" fill="white"/>
<path d="M35.4407 32.9259C37.2742 37.0095 39.0869 40.7114 39.6714 40.8149C40.1293 40.8975 42.589 40.8834 45.6109 40.8303C45.4767 40.5535 45.3457 40.2777 45.2187 40.0059C44.2834 38.029 43.4523 34.8021 41.4764 33.6573C39.8301 32.6863 37.3672 32.8928 35.4407 32.9259Z" fill="white"/>
<path d="M22.7658 11.6831C22.8687 11.7126 22.9803 11.7076 23.1031 11.674C23.2827 11.6246 23.4863 11.517 23.7198 11.3705C25.055 10.5334 27.3855 8.47523 31.9626 9.36681C34.2591 9.81464 41.086 9.13269 41.7878 6.32274C40.8955 5.72745 39.8786 5.00601 38.9482 4.15845C38.9613 4.1707 38.9749 4.1834 38.9881 4.19565C38.4372 4.75374 35.9507 5.59904 33.6543 5.15121C27.6276 3.97696 27.5973 4.6757 26.7657 5.1444C26.9072 5.49831 23.1521 9.2561 22.7109 11.6663C22.7282 11.6745 22.7477 11.6777 22.7658 11.6831Z" fill="white"/>
<path d="M74.8776 37.0958C74.4496 37.8785 73.7872 38.4125 73.0785 38.7497C73.2594 39.2574 73.4838 39.8559 73.7418 40.5238C74.6518 40.5387 75.4938 40.5528 76.1367 40.5528C76.216 40.5528 76.2954 40.5501 76.3738 40.5483C75.5844 38.7011 75.0109 37.3735 74.8776 37.0958Z" fill="white"/>
<path d="M68.8927 40.504C68.2026 39.0616 67.5275 37.7358 67.4463 37.5543C67.401 37.455 67.3452 37.3606 67.2831 37.2726C67.1389 37.9795 66.5064 38.5267 65.762 38.5303C65.499 38.5317 65.2492 38.465 65.0288 38.3475C65.684 40.3294 67.5139 44.9411 67.9002 45.0981C67.9338 45.1112 67.9614 45.1176 67.9864 45.1194C68.3169 45.1457 67.999 44.2242 69.0255 43.9832C70.0208 43.75 69.8811 44.5704 70.3975 44.461C70.4084 44.4588 70.4143 44.4501 70.422 44.4429C70.5064 44.3608 70.3998 43.9646 70.1813 43.3948C69.8843 42.6207 69.3851 41.5331 68.8927 40.504Z" fill="white"/>
<path d="M64.0196 51.0696C62.279 51.2025 56.3548 52.2955 50.2964 52.0247C44.2376 51.7533 38.9754 50.732 37.7621 50.4607C36.5488 50.1907 35.8424 54.4122 37.009 54.5333C38.1747 54.6545 44.083 55.7784 50.3631 56.0837C56.6432 56.3882 62.8493 55.2979 64.0862 55.1286C65.3231 54.9589 65.7606 50.9371 64.0196 51.0696Z" fill="#5FC0DE"/>
<path d="M55.7915 58.078C55.2347 58.1524 54.678 58.2899 54.2463 58.3166C52.6553 58.416 51.0671 58.117 49.482 58.117C48.6504 58.117 47.0912 57.7005 46.4668 58.4287C45.5315 59.47 46.4668 60.9269 47.6108 61.4474C49.3786 62.28 52.1856 62.1756 54.1611 62.0722C55.3046 62.0722 56.3447 61.7595 57.1767 60.9274C57.7407 60.3625 58.3668 59.2241 57.7149 58.4927C57.2624 57.9872 56.526 57.9791 55.7915 58.078Z" fill="#5FC0DE"/>
<path d="M26.7658 5.14423C26.3505 4.10519 21.3989 3.44456 18.517 3.56706C18.4708 3.62287 18.4291 3.68276 18.3942 3.74674C17.325 5.70186 21.6183 11.1983 22.7101 11.6661C22.7278 11.6743 22.7464 11.6798 22.7659 11.6829C22.7477 11.6775 22.7282 11.6743 22.7101 11.6661C23.1522 9.25593 26.9073 5.49814 26.7658 5.14423Z" fill="white"/>
<path d="M71.8566 32.4866C70.5032 32.4395 69.0868 33.4014 69.0269 35.5421C68.9725 37.4886 70.496 38.3116 71.6929 38.0875C72.7621 37.9237 74.0951 37.214 74.3045 35.5729C74.5466 33.6722 73.0273 32.527 71.8566 32.4866Z" fill="black"/>
<path d="M19.0401 4.7247C19.1526 4.76327 19.1295 4.79548 19.1671 4.91164C19.1861 4.96699 19.1802 5.01736 19.2142 5.065C19.2242 5.07997 19.2405 5.0895 19.2587 5.08406C19.3702 5.05229 19.4006 4.81635 19.5226 4.78323C19.645 4.75056 19.8386 4.8649 19.9016 4.78822C19.9465 4.73378 19.7311 4.60446 19.6767 4.45246C19.655 4.39212 19.7007 4.3295 19.7357 4.26326C19.7692 4.20155 19.8345 4.04365 19.7116 4.09311C19.5883 4.14302 19.4822 4.20745 19.3884 4.1707C19.2936 4.13349 19.1113 3.90617 19.071 3.97287C19.0311 4.04093 19.1041 4.28549 19.0664 4.35763C19.0288 4.42978 18.6874 4.48785 18.7391 4.5972C18.7649 4.65029 18.9912 4.70791 19.0401 4.7247Z" fill="white"/>
<path d="M21.6904 9.72368C21.7158 9.77676 21.9416 9.83439 21.9905 9.85118C22.1034 9.88974 22.0799 9.92196 22.1184 10.0386C22.1365 10.0935 22.1302 10.1434 22.1646 10.1915C22.1755 10.206 22.1909 10.216 22.2091 10.2105C22.3206 10.1783 22.3505 9.94238 22.473 9.90925C22.5954 9.87613 22.789 9.99047 22.852 9.9147C22.8969 9.86025 22.6811 9.73094 22.6267 9.57894C22.6054 9.51768 22.6511 9.45598 22.6865 9.39019C22.7196 9.32802 22.7849 9.17013 22.6616 9.22004C22.5387 9.26949 22.4326 9.33438 22.3388 9.29717C22.244 9.25997 22.0617 9.03219 22.0214 9.09935C21.981 9.1665 22.0545 9.41196 22.0168 9.48411C21.9792 9.55534 21.6387 9.61478 21.6904 9.72368Z" fill="white"/>
<path d="M24.9145 5.5836C25.0274 5.62216 25.0038 5.65438 25.0423 5.77053C25.0605 5.82589 25.0541 5.87535 25.089 5.92389C25.0995 5.93796 25.1153 5.9484 25.1335 5.94295C25.245 5.91074 25.2754 5.67525 25.3969 5.64167C25.5193 5.60855 25.7134 5.72289 25.7759 5.64667C25.8208 5.59222 25.605 5.46336 25.5515 5.31136C25.5293 5.25011 25.5751 5.1884 25.6105 5.12215C25.644 5.06045 25.7093 4.90255 25.5864 4.95201C25.4626 5.00192 25.3575 5.06635 25.2627 5.02959C25.1684 4.99239 24.9866 4.76461 24.9462 4.83177C24.9059 4.89892 24.9789 5.14439 24.9408 5.21653C24.9036 5.28777 24.5626 5.34675 24.6143 5.4561C24.6397 5.50919 24.866 5.56681 24.9145 5.5836Z" fill="white"/>
<path d="M20.1515 7.07244C20.273 7.08923 20.3469 7.18043 20.4258 7.13551C20.4857 7.10103 20.7826 6.9277 20.9849 6.79703C20.9894 6.80837 20.9953 6.81926 21.0007 6.8306C20.7831 6.96718 20.419 7.2013 20.4344 7.21945C20.4553 7.24486 20.5768 7.27889 20.6063 7.26573C20.6253 7.25802 20.8724 7.05021 21.0424 6.90592C21.0937 6.99168 21.1576 7.06881 21.2306 7.13551C21.0674 7.28751 20.8076 7.53071 20.7972 7.54976C20.7817 7.5779 20.8026 7.70222 20.8257 7.72581C20.8429 7.74351 21.1381 7.38143 21.2923 7.18769C21.3013 7.19404 21.3095 7.20085 21.3181 7.20674C21.1803 7.39686 20.91 7.69904 20.8915 7.75712C20.867 7.82836 20.9336 7.88462 20.949 7.96402C20.9889 8.09878 21.0021 8.20404 21.1218 8.1133C21.2197 8.03934 21.3367 8.05159 21.3603 7.96493C21.3793 7.89687 21.4686 7.55702 21.519 7.32154C21.5303 7.32653 21.5416 7.33061 21.5539 7.3347C21.4958 7.5847 21.4024 8.01575 21.426 8.01801C21.4591 8.02119 21.5684 7.95858 21.5806 7.92908C21.5879 7.90957 21.6164 7.58425 21.635 7.36192C21.7212 7.38642 21.811 7.40049 21.9044 7.40049C21.9134 7.40049 21.9211 7.39958 21.9302 7.39913C21.922 7.62236 21.9107 7.97355 21.9166 7.99487C21.9252 8.02527 22.0281 8.09878 22.0612 8.09923C22.0853 8.09923 22.0395 7.64278 22.0114 7.39459C22.0222 7.39323 22.0327 7.39096 22.0436 7.3896C22.0798 7.62236 22.102 8.02074 22.1288 8.07428C22.1623 8.14143 22.2494 8.13508 22.3156 8.18C22.4394 8.24715 22.5233 8.31248 22.5441 8.16321C22.5609 8.04161 22.6525 7.9672 22.6071 7.8887C22.5731 7.82881 22.3999 7.53071 22.2693 7.32925C22.2807 7.32426 22.2929 7.32018 22.3043 7.31519C22.4407 7.53343 22.6733 7.89551 22.6915 7.88053C22.7169 7.85966 22.7504 7.73806 22.7377 7.70857C22.7296 7.68906 22.526 7.44631 22.3822 7.27662C22.4702 7.22807 22.5496 7.16727 22.6194 7.09649C22.7717 7.25983 23.003 7.50666 23.0211 7.51755C23.0492 7.53298 23.1739 7.5112 23.1975 7.48851C23.2142 7.47218 22.8728 7.19177 22.676 7.03387C22.6824 7.02571 22.6892 7.01709 22.6955 7.00847C22.886 7.14957 23.1716 7.40457 23.2274 7.42317C23.2986 7.44677 23.3552 7.38098 23.4346 7.36555C23.5693 7.32562 23.6749 7.31246 23.5842 7.19177C23.5103 7.09377 23.5226 6.97761 23.435 6.95311C23.3707 6.93587 23.0546 6.85238 22.8216 6.80111C22.827 6.78977 22.8316 6.77842 22.8366 6.76708C23.0891 6.8247 23.4863 6.91001 23.4881 6.88777C23.4917 6.8551 23.4292 6.7453 23.3997 6.73305C23.3815 6.72579 23.0864 6.69947 22.8674 6.68133C22.8955 6.58922 22.9109 6.49257 22.9109 6.3923V6.38504C23.1335 6.39275 23.4459 6.40319 23.4654 6.39684C23.4963 6.38822 23.5693 6.28522 23.5693 6.25255C23.5693 6.22941 23.1607 6.26934 22.9068 6.29747C22.9064 6.28613 22.9064 6.27433 22.905 6.26299C23.1408 6.23077 23.4949 6.20945 23.5452 6.18449C23.6123 6.15092 23.6055 6.06425 23.6509 5.99665C23.718 5.87369 23.7824 5.78975 23.6341 5.76887C23.5121 5.75209 23.4382 5.66043 23.3598 5.70535C23.304 5.73711 23.0429 5.89002 22.8438 6.0157C22.8393 6.00436 22.8356 5.99256 22.8311 5.98122C23.0501 5.84283 23.3652 5.6382 23.3512 5.62141C23.3303 5.596 23.2088 5.56243 23.1789 5.57513C23.1616 5.58239 22.9549 5.75617 22.7894 5.89592C22.7409 5.80699 22.6797 5.72577 22.608 5.65499C22.7695 5.50526 22.9789 5.30789 22.9884 5.29064C23.0039 5.26297 22.983 5.13774 22.9599 5.1146C22.9445 5.09872 22.7005 5.39364 22.54 5.59328C22.5314 5.58648 22.5219 5.57967 22.5124 5.57286C22.6579 5.38457 22.8774 5.13592 22.8941 5.0842C22.9186 5.01296 22.852 4.95624 22.8366 4.87684C22.7967 4.74163 22.7835 4.63682 22.6638 4.72711C22.5659 4.80107 22.4489 4.78882 22.4253 4.87639C22.4085 4.93628 22.336 5.21306 22.2843 5.43901C22.2734 5.43448 22.2612 5.43039 22.2499 5.42631C22.307 5.17403 22.3804 4.82466 22.3596 4.8233C22.3274 4.81967 22.2168 4.88229 22.205 4.91178C22.1982 4.92857 22.1755 5.18447 22.1574 5.39636C22.0757 5.37458 21.9914 5.36188 21.9039 5.36188C21.8885 5.36188 21.8735 5.36324 21.8581 5.36369C21.8663 5.14545 21.8749 4.86504 21.8694 4.84599C21.8604 4.81513 21.7575 4.74163 21.7244 4.74163C21.703 4.74163 21.7384 5.11777 21.7661 5.37277C21.7547 5.37413 21.7434 5.37594 21.7321 5.37821C21.7017 5.14273 21.6808 4.81513 21.6568 4.76659C21.6237 4.69853 21.5371 4.70533 21.47 4.66087C21.3467 4.59371 21.2623 4.52838 21.2415 4.6772C21.2247 4.7988 21.1331 4.87367 21.1785 4.95171C21.2097 5.00661 21.3576 5.26024 21.4818 5.45807C21.4714 5.46351 21.4605 5.46896 21.4491 5.4744C21.3113 5.2548 21.1109 4.94626 21.0941 4.96033C21.0687 4.9812 21.0352 5.1028 21.0479 5.13275C21.0551 5.14999 21.2279 5.35643 21.3671 5.52114C21.2832 5.57559 21.2066 5.64228 21.1413 5.71851C20.9903 5.55562 20.7817 5.33375 20.7645 5.32377C20.7359 5.30789 20.6117 5.32876 20.5881 5.35235C20.5723 5.36778 20.8874 5.62822 21.0869 5.78839C21.0801 5.79791 21.0728 5.80653 21.0669 5.81606C20.8774 5.67132 20.6103 5.43538 20.5573 5.41769C20.487 5.39364 20.4299 5.45988 20.3505 5.47577C20.2163 5.51524 20.1107 5.52885 20.2014 5.64818C20.2753 5.74664 20.263 5.8637 20.3496 5.8873C20.4145 5.90545 20.7232 5.98621 20.9554 6.03794C20.9513 6.04928 20.9463 6.06062 20.9422 6.07197C20.6897 6.0148 20.2989 5.93086 20.2966 5.95309C20.2934 5.98621 20.356 6.09556 20.3855 6.10781C20.4041 6.11507 20.6997 6.14093 20.9196 6.15954C20.9046 6.2276 20.8969 6.29792 20.8969 6.37007V6.3923C20.8969 6.41453 20.8987 6.4354 20.9001 6.45673C20.6765 6.44856 20.3406 6.43813 20.3197 6.44357C20.2893 6.45265 20.2163 6.55564 20.2154 6.58876C20.2154 6.61236 20.6589 6.56789 20.9087 6.54022C20.911 6.55111 20.9123 6.56154 20.9141 6.57243C20.6797 6.60828 20.2925 6.6296 20.2404 6.65637C20.1733 6.6904 20.1801 6.77706 20.1347 6.84376C20.0676 6.96718 20.0032 7.05157 20.1515 7.07244Z" fill="white"/>
<path d="M36.923 32.8901C37.5047 32.8801 38.1013 32.8819 38.6867 32.9237C38.6794 32.8633 38.6717 32.8025 38.6654 32.7422C38.8975 32.7871 39.1324 32.8257 39.3682 32.8547C39.3736 32.9023 39.3786 32.9495 39.3849 32.9972C39.6066 33.028 39.8247 33.0648 40.0378 33.1129C40.5524 30.7253 41.1237 26.7897 42.8417 21.9615L38.2283 22.0142C38.2333 22.0786 38.2392 22.1439 38.2446 22.2084C38.2442 22.2084 38.2433 22.2084 38.2419 22.2084C37.9989 22.1934 37.7676 22.2165 37.531 22.1544C37.5278 22.1104 37.5233 22.0664 37.5196 22.0219L30.8165 22.0986C30.8165 22.0986 32.0412 25.1032 33.59 28.704C35.3447 29.3882 36.2406 31.2626 36.923 32.8901Z" fill="white"/>
<path d="M13.7146 40.9428C14.8581 40.0058 14.9619 39.2776 15.5858 38.1328C15.9295 37.5235 16.2804 36.9758 16.6567 36.4849C17.8356 33.1032 19.5159 29.3981 21.5131 28.9738C24.1673 28.4094 27.4463 28.5151 29.8521 28.5074C28.5399 25.1103 27.5438 22.5195 27.5438 22.5195C27.5438 22.5195 20.6059 22.7886 17.9775 24.0518C15.4566 25.2623 13.1011 39.087 11.9722 40.6778C12.1504 41.1211 12.2882 41.5603 12.3902 41.9501C12.8486 41.6511 13.3129 41.3448 13.7146 40.9428Z" fill="white"/>
<path d="M79.7313 53.3159C79.4189 52.7333 78.9238 52.1407 78.3063 51.6244C78.4341 51.9239 78.5584 52.2147 78.6799 52.4974C78.7288 52.6131 78.7783 52.7274 78.8263 52.8404C78.8898 52.9883 78.9519 53.133 79.014 53.2755C79.0648 53.3944 79.1151 53.5115 79.165 53.6267C79.7145 54.9003 80.1521 55.8985 80.3937 56.4303C80.377 55.2193 80.1548 54.1067 79.7313 53.3159Z" fill="white"/>
<path d="M75.2009 43.2581C75.0784 43.2581 74.9524 43.2594 74.8254 43.2608C75.0032 43.7027 75.1877 44.156 75.3754 44.6161C76.3734 44.5988 77.3595 44.7663 78.3008 45.0693C78.0559 44.4931 77.8147 43.9246 77.5799 43.3738C76.8172 43.3275 75.9576 43.2581 75.2009 43.2581Z" fill="white"/>
<path d="M43.1277 38.5959C43.2029 38.6517 43.2823 38.6785 43.3589 38.6839C43.4918 38.6935 43.616 38.6349 43.694 38.5319C43.7316 38.4834 43.7579 38.4253 43.7701 38.3591C43.7828 38.2937 43.7806 38.2211 43.7606 38.144C43.6953 37.8972 43.3553 37.8191 43.1517 37.943C42.8846 38.1041 42.8624 38.3994 43.1277 38.5959Z" fill="white"/>
<path d="M40.5717 40.0948C40.3042 40.2568 40.282 40.5521 40.5477 40.7482C40.8759 40.9918 41.2881 40.7078 41.1806 40.2962C41.1153 40.0494 40.7753 39.9714 40.5717 40.0948Z" fill="white"/>
<path d="M37.9919 37.9423C37.9389 37.9745 37.8985 38.013 37.865 38.0534C37.9779 38.2739 38.0881 38.4845 38.1942 38.6837C38.1955 38.6841 38.1973 38.6841 38.1987 38.6841C38.332 38.6936 38.4562 38.6351 38.5347 38.5321C38.5718 38.4836 38.5977 38.4255 38.6108 38.3592C38.6226 38.2939 38.6208 38.2213 38.6004 38.1442C38.5356 37.8973 38.1955 37.8193 37.9919 37.9423Z" fill="white"/>
<path d="M41.1806 35.9916C41.1153 35.7448 40.7753 35.6672 40.5717 35.7901C40.3042 35.9521 40.282 36.2475 40.5477 36.444C40.8759 36.6872 41.2881 36.4036 41.1806 35.9916Z" fill="white"/>
<path d="M32.8318 55.1599C32.5643 55.3223 32.5425 55.6173 32.8078 55.8137C32.883 55.8695 32.9624 55.8968 33.039 55.9018C33.1718 55.9113 33.2961 55.8528 33.3741 55.7498C33.4117 55.7017 33.438 55.6422 33.4502 55.5769C33.4629 55.512 33.4607 55.4394 33.4407 55.3618C33.3754 55.115 33.0354 55.037 32.8318 55.1599Z" fill="white"/>
<path d="M35.4121 48.7034C35.1446 48.8653 35.1224 49.1607 35.3876 49.3572C35.5246 49.4588 35.6751 49.4674 35.7971 49.4157C35.8311 49.1839 35.8632 48.9543 35.8932 48.7283C35.7581 48.6317 35.5531 48.6181 35.4121 48.7034Z" fill="white"/>
<path d="M35.4121 44.3988C35.1446 44.5612 35.1224 44.8562 35.3876 45.0526C35.7163 45.2963 36.128 45.0122 36.0206 44.6007C35.9553 44.3539 35.6157 44.2758 35.4121 44.3988Z" fill="white"/>
<path d="M32.8318 42.2468C32.5643 42.4088 32.5425 42.7042 32.8078 42.9007C32.883 42.9565 32.9624 42.9832 33.039 42.9887C33.1718 42.9982 33.2961 42.9397 33.3741 42.8367C33.4117 42.7881 33.438 42.7296 33.4502 42.6638C33.4629 42.5985 33.4607 42.5259 33.4407 42.4487C33.3754 42.2019 33.0354 42.1239 32.8318 42.2468Z" fill="white"/>
<path d="M27.6721 59.4646C27.4046 59.6266 27.3824 59.922 27.6476 60.1184C27.7229 60.1742 27.8022 60.201 27.8789 60.2064C28.0117 60.216 28.1364 60.1574 28.2139 60.0544C28.2516 60.0059 28.2779 59.9469 28.2901 59.8816C28.3028 59.8162 28.301 59.7436 28.2806 59.6665C28.2153 59.4197 27.8757 59.3416 27.6721 59.4646Z" fill="white"/>
<path d="M30.252 57.3125C29.9845 57.4745 29.9623 57.7698 30.228 57.9663C30.5562 58.2095 30.9684 57.9259 30.8605 57.5144C30.7956 57.2671 30.4556 57.1895 30.252 57.3125Z" fill="white"/>
<path d="M27.6721 55.1599C27.4046 55.3223 27.3824 55.6173 27.6476 55.8137C27.7229 55.8695 27.8022 55.8968 27.8789 55.9018C28.0117 55.9113 28.1364 55.8528 28.2139 55.7498C28.2516 55.7017 28.2779 55.6422 28.2901 55.5769C28.3028 55.512 28.301 55.4394 28.2806 55.3618C28.2153 55.115 27.8757 55.037 27.6721 55.1599Z" fill="white"/>
<path d="M30.252 53.0079C29.9845 53.1699 29.9623 53.4653 30.228 53.6618C30.5562 53.905 30.9684 53.6214 30.8605 53.2098C30.7956 52.963 30.4556 52.885 30.252 53.0079Z" fill="white"/>
<path d="M32.8318 50.8559C32.5643 51.0179 32.5425 51.3133 32.8078 51.5093C32.883 51.5651 32.9624 51.5923 33.039 51.5977C33.1718 51.6068 33.2961 51.5483 33.3741 51.4457C33.4117 51.3972 33.438 51.3387 33.4502 51.2729C33.4629 51.2075 33.4607 51.1349 33.4407 51.0574C33.3754 50.8105 33.0354 50.7325 32.8318 50.8559Z" fill="white"/>
<path d="M30.8605 48.9054C30.7956 48.6586 30.4556 48.5805 30.252 48.7035C29.9845 48.8655 29.9623 49.1609 30.228 49.3573C30.5562 49.601 30.9684 49.3169 30.8605 48.9054Z" fill="white"/>
<path d="M33.039 47.2932C33.1718 47.3027 33.2961 47.2442 33.3741 47.1412C33.4117 47.0927 33.438 47.0341 33.4502 46.9683C33.4629 46.903 33.4607 46.8304 33.4407 46.7528C33.3754 46.506 33.0354 46.4284 32.8318 46.5518C32.5643 46.7133 32.5425 47.0087 32.8078 47.2056C32.883 47.261 32.9624 47.2878 33.039 47.2932Z" fill="white"/>
<path d="M30.252 44.3988C29.9845 44.5612 29.9623 44.8562 30.228 45.0526C30.5562 45.2963 30.9684 45.0122 30.8605 44.6007C30.7956 44.3539 30.4556 44.2758 30.252 44.3988Z" fill="white"/>
<path d="M27.6721 42.2468C27.4046 42.4088 27.3824 42.7042 27.6476 42.9007C27.7229 42.9565 27.8022 42.9832 27.8789 42.9887C28.0117 42.9982 28.1364 42.9397 28.2139 42.8367C28.2516 42.7881 28.2779 42.7296 28.2901 42.6638C28.3028 42.5985 28.301 42.5259 28.2806 42.4487C28.2153 42.2019 27.8757 42.1239 27.6721 42.2468Z" fill="white"/>
<path d="M30.8605 40.2962C30.7956 40.0494 30.4556 39.9714 30.252 40.0948C29.9845 40.2568 29.9623 40.5521 30.228 40.7482C30.5562 40.9918 30.9684 40.7078 30.8605 40.2962Z" fill="white"/>
<path d="M33.4407 38.1442C33.3754 37.8973 33.0354 37.8193 32.8318 37.9423C32.5643 38.1042 32.5425 38.3996 32.8078 38.5961C32.883 38.6519 32.9624 38.6787 33.039 38.6841C33.1718 38.6936 33.2961 38.6351 33.3741 38.5321C33.4117 38.4836 33.438 38.4255 33.4502 38.3592C33.4629 38.2939 33.4607 38.2213 33.4407 38.1442Z" fill="white"/>
<path d="M30.8605 35.9916C30.7956 35.7448 30.4556 35.6672 30.252 35.7901C29.9845 35.9521 29.9623 36.2475 30.228 36.444C30.5562 36.6872 30.9684 36.4036 30.8605 35.9916Z" fill="white"/>
<path d="M22.5119 59.4646C22.2444 59.6266 22.2222 59.922 22.4879 60.1184C22.5631 60.1742 22.642 60.201 22.7187 60.2064C22.852 60.216 22.9762 60.1574 23.0542 60.0544C23.0918 60.0059 23.1181 59.9469 23.1299 59.8816C23.1426 59.8162 23.1408 59.7436 23.1208 59.6665C23.0555 59.4197 22.7155 59.3416 22.5119 59.4646Z" fill="white"/>
<path d="M25.0918 57.3125C24.8247 57.4745 24.8025 57.7698 25.0677 57.9663C25.3964 58.2095 25.8081 57.9259 25.7007 57.5144C25.6354 57.2671 25.2953 57.1895 25.0918 57.3125Z" fill="white"/>
<path d="M25.0918 53.0079C24.8247 53.1699 24.8025 53.4653 25.0677 53.6618C25.3964 53.905 25.8081 53.6214 25.7007 53.2098C25.6354 52.963 25.2953 52.885 25.0918 53.0079Z" fill="white"/>
<path d="M27.6721 50.8559C27.4046 51.0179 27.3824 51.3133 27.6476 51.5093C27.7229 51.5651 27.8022 51.5923 27.8789 51.5977C28.0117 51.6068 28.1364 51.5483 28.2139 51.4457C28.2516 51.3972 28.2779 51.3387 28.2901 51.2729C28.3028 51.2075 28.301 51.1349 28.2806 51.0574C28.2153 50.8105 27.8757 50.7325 27.6721 50.8559Z" fill="white"/>
<path d="M25.7007 48.9054C25.6354 48.6586 25.2953 48.5805 25.0918 48.7035C24.8247 48.8655 24.8025 49.1609 25.0677 49.3573C25.3964 49.601 25.8081 49.3169 25.7007 48.9054Z" fill="white"/>
<path d="M25.0918 44.3988C24.8247 44.5612 24.8025 44.8562 25.0677 45.0526C25.3964 45.2963 25.8081 45.0122 25.7007 44.6007C25.6354 44.3539 25.2953 44.2758 25.0918 44.3988Z" fill="white"/>
<path d="M22.5119 42.2468C22.2444 42.4088 22.2222 42.7042 22.4879 42.9007C22.5631 42.9565 22.642 42.9832 22.7187 42.9887C22.852 42.9982 22.9762 42.9397 23.0542 42.8367C23.0918 42.7881 23.1181 42.7296 23.1299 42.6638C23.1426 42.5985 23.1408 42.5259 23.1208 42.4487C23.0555 42.2019 22.7155 42.1239 22.5119 42.2468Z" fill="white"/>
<path d="M25.7007 40.2962C25.6354 40.0494 25.2953 39.9714 25.0918 40.0948C24.8247 40.2568 24.8025 40.5521 25.0677 40.7482C25.3964 40.9918 25.8081 40.7078 25.7007 40.2962Z" fill="white"/>
<path d="M28.2806 38.1442C28.2153 37.8973 27.8757 37.8193 27.6721 37.9423C27.4046 38.1042 27.3824 38.3996 27.6476 38.5961C27.7229 38.6519 27.8022 38.6787 27.8789 38.6841C28.0117 38.6936 28.1364 38.6351 28.2139 38.5321C28.2516 38.4836 28.2779 38.4255 28.2901 38.3592C28.3028 38.2939 28.301 38.2213 28.2806 38.1442Z" fill="white"/>
<path d="M25.7007 35.9916C25.6354 35.7448 25.2953 35.6672 25.0918 35.7901C24.8247 35.9521 24.8025 36.2475 25.0677 36.444C25.3964 36.6872 25.8081 36.4036 25.7007 35.9916Z" fill="white"/>
<path d="M22.7187 34.3796C22.852 34.3891 22.9762 34.3306 23.0542 34.2276C23.0918 34.1795 23.1181 34.121 23.1299 34.0547C23.1426 33.9899 23.1408 33.9173 23.1208 33.8397C23.0555 33.5928 22.7155 33.5148 22.5119 33.6387C22.2444 33.8002 22.2222 34.0951 22.4879 34.2925C22.5631 34.3474 22.642 34.3746 22.7187 34.3796Z" fill="white"/>
<path d="M19.9319 61.617C19.6871 61.7649 19.6504 62.0245 19.8499 62.2187C20.0267 62.1878 20.2575 62.1456 20.5345 62.093C20.5613 62.0131 20.5667 61.9196 20.5404 61.8185C20.4756 61.5716 20.1355 61.4936 19.9319 61.617Z" fill="white"/>
<path d="M19.932 57.3125C19.8168 57.3824 19.7497 57.4772 19.7289 57.5775C19.7311 57.6292 19.733 57.6796 19.7343 57.7322C19.7584 57.8157 19.8141 57.8969 19.9075 57.9663C20.2362 58.2095 20.6479 57.925 20.5405 57.5135C20.4756 57.2671 20.1356 57.1895 19.932 57.3125Z" fill="white"/>
<path d="M22.5119 55.1599C22.2444 55.3223 22.2222 55.6173 22.4879 55.8137C22.5631 55.8695 22.642 55.8968 22.7187 55.9018C22.852 55.9113 22.9762 55.8528 23.0542 55.7498C23.0918 55.7017 23.1181 55.6422 23.1299 55.5769C23.1426 55.512 23.1408 55.4394 23.1208 55.3618C23.0555 55.115 22.7155 55.037 22.5119 55.1599Z" fill="white"/>
<path d="M19.932 53.0079C19.6645 53.1699 19.6423 53.4653 19.9075 53.6618C20.2362 53.905 20.6479 53.6214 20.5405 53.2098C20.4756 52.963 20.1356 52.885 19.932 53.0079Z" fill="white"/>
<path d="M20.5405 48.9054C20.4756 48.6586 20.1356 48.5805 19.932 48.7035C19.6645 48.8655 19.6423 49.1609 19.9075 49.3573C20.2362 49.601 20.6479 49.3169 20.5405 48.9054Z" fill="white"/>
<path d="M19.932 44.3988C19.6645 44.5612 19.6423 44.8562 19.9075 45.0526C20.2362 45.2963 20.6479 45.0122 20.5405 44.6007C20.4756 44.3539 20.1356 44.2758 19.932 44.3988Z" fill="white"/>
<path d="M20.5405 40.2962C20.4756 40.0494 20.1356 39.9714 19.932 40.0948C19.6645 40.2568 19.6423 40.5521 19.9075 40.7482C20.2362 40.9918 20.6479 40.7078 20.5405 40.2962Z" fill="white"/>
<path d="M23.1208 38.1442C23.0555 37.8973 22.7155 37.8193 22.5119 37.9423C22.2444 38.1042 22.2222 38.3996 22.4879 38.5961C22.5631 38.6519 22.642 38.6787 22.7187 38.6841C22.852 38.6936 22.9762 38.6351 23.0542 38.5321C23.0918 38.4836 23.1181 38.4255 23.1299 38.3592C23.1426 38.2939 23.1408 38.2213 23.1208 38.1442Z" fill="white"/>
<path d="M17.559 38.6839C17.6918 38.6935 17.8161 38.6349 17.894 38.5319C17.9317 38.4834 17.958 38.4253 17.9702 38.3591C17.9829 38.2937 17.9806 38.2211 17.9607 38.144C17.8954 37.8972 17.5554 37.8191 17.3518 37.943C17.0847 38.1041 17.0625 38.3994 17.3277 38.5964C17.403 38.6517 17.4824 38.6785 17.559 38.6839Z" fill="white"/>
<path d="M12.192 46.5515C11.9245 46.7135 11.9023 47.0089 12.1675 47.2053C12.1689 47.2067 12.1698 47.2067 12.1703 47.2071C12.2559 47.2362 12.3398 47.2657 12.4246 47.2952C12.5479 47.2952 12.6608 47.2375 12.7343 47.1413C12.771 47.0923 12.7978 47.0338 12.81 46.9685C12.8222 46.9027 12.82 46.8296 12.8 46.753C12.7356 46.5061 12.3956 46.4285 12.192 46.5515Z" fill="white"/>
<path d="M14.7719 44.3988C14.5044 44.5612 14.4822 44.8562 14.7479 45.0526C15.0761 45.2963 15.4883 45.0122 15.3799 44.6007C15.3155 44.3539 14.9755 44.2758 14.7719 44.3988Z" fill="white"/>
<path d="M12.8 42.4487C12.7356 42.2019 12.3956 42.1239 12.192 42.2468C11.9245 42.4088 11.9023 42.7042 12.1675 42.9007C12.2428 42.9565 12.3221 42.9832 12.3988 42.9887C12.5321 42.9982 12.6563 42.9397 12.7343 42.8367C12.771 42.7881 12.7978 42.7296 12.81 42.6638C12.8222 42.5985 12.8209 42.5259 12.8 42.4487Z" fill="white"/>
<path d="M17.3518 42.2468C17.0847 42.4088 17.0625 42.7042 17.3277 42.9007C17.403 42.9565 17.4824 42.9832 17.559 42.9887C17.6918 42.9982 17.8161 42.9397 17.894 42.8367C17.9317 42.7881 17.958 42.7296 17.9702 42.6638C17.9829 42.5985 17.9806 42.5259 17.9607 42.4487C17.8954 42.2019 17.5554 42.1239 17.3518 42.2468Z" fill="white"/>
<path d="M15.3799 40.2962C15.3155 40.0494 14.9755 39.9714 14.7719 40.0948C14.5044 40.2568 14.4822 40.5521 14.7479 40.7482C15.0761 40.9918 15.4883 40.7078 15.3799 40.2962Z" fill="white"/>
<path d="M41.4753 35.1823C40.7503 34.5466 39.5275 34.4799 38.6207 34.3665C38.5468 34.3569 38.472 34.3501 38.3976 34.3415C38.4507 34.3152 38.4978 34.2762 38.5341 34.2276C38.5708 34.1795 38.5976 34.121 38.6098 34.0547C38.6225 33.9899 38.6198 33.9173 38.5999 33.8397C38.5355 33.5928 38.1954 33.5148 37.9918 33.6387C37.7243 33.8002 37.7021 34.0951 37.9674 34.2925C37.971 34.2943 37.9742 34.2957 37.9778 34.2984C37.3258 34.2385 36.6743 34.2108 36.0214 34.2049C36.0749 34.3234 36.1293 34.4409 36.1832 34.5579C36.5401 34.5593 36.8978 34.5666 37.2569 34.5883C38.0531 34.6346 38.8479 34.7226 39.6332 34.8642C40.1546 34.9581 40.8197 35.0638 41.2314 35.4255C41.3983 35.5716 41.6422 35.3288 41.4753 35.1823Z" fill="white"/>
<path d="M32.0574 34.2018C30.8694 34.1686 29.6815 34.1224 28.4941 34.145C28.4165 34.1464 28.3376 34.1478 28.2592 34.1496C28.2724 34.1201 28.2841 34.0888 28.29 34.0547C28.3027 33.9899 28.3 33.9173 28.2801 33.8397C28.2152 33.5928 27.8756 33.5148 27.672 33.6387C27.4562 33.7684 27.4032 33.9849 27.5288 34.1673C25.4817 34.2285 23.3076 34.4028 21.4509 35.2177C21.0809 35.3805 20.7232 35.5716 20.4063 35.8102C20.2707 35.7177 20.0703 35.7068 19.932 35.7907C19.6967 35.9327 19.6518 36.1782 19.8259 36.3701C19.7429 36.4713 19.665 36.577 19.5965 36.6927C18.6144 38.3339 18.0445 39.9805 16.2264 40.8984C16.0291 40.9986 16.2028 41.2954 16.4005 41.1955C17.7253 40.5263 18.5138 39.4723 19.1957 38.185C19.528 37.5571 19.8023 37.0008 20.1968 36.5321C20.3813 36.5171 20.5373 36.3706 20.5554 36.1632C20.7481 35.9931 20.9685 35.8379 21.2306 35.6995C23.2582 34.6251 25.8693 34.5675 28.1073 34.4989C29.4666 34.4572 30.8241 34.4899 32.182 34.523C32.1403 34.4159 32.0982 34.3084 32.0574 34.2018Z" fill="white"/>
<path d="M24.8646 46.673C24.287 46.7202 23.7085 46.7637 23.1299 46.8055C23.1272 46.7882 23.1245 46.7705 23.1209 46.7528C23.0556 46.506 22.7155 46.4284 22.5119 46.5514C22.3796 46.6312 22.3079 46.7442 22.3011 46.8613C20.8607 46.9588 19.4188 47.0437 17.9775 47.1194C17.9344 47.1217 17.9031 47.1389 17.8768 47.1612C17.8827 47.1544 17.8886 47.1485 17.894 47.1412C17.9312 47.0922 17.958 47.0337 17.9702 46.9683C17.9829 46.9025 17.9802 46.8295 17.9598 46.7528C17.8954 46.506 17.5554 46.4284 17.3518 46.5514C17.0847 46.7133 17.0625 47.0087 17.3277 47.2052C17.403 47.261 17.4824 47.2878 17.559 47.2932C17.6669 47.3005 17.7694 47.2637 17.846 47.1934C17.7753 47.2973 17.8174 47.4729 17.9775 47.4638C19.4764 47.3853 20.9754 47.295 22.4739 47.1929C22.4788 47.197 22.4825 47.2016 22.4879 47.2056C22.5632 47.261 22.6421 47.2878 22.7187 47.2932C22.8456 47.3018 22.964 47.2487 23.0429 47.1539C23.5774 47.1163 24.1129 47.0763 24.6479 47.035C25.5933 46.9615 26.5359 46.864 27.4799 46.7719C27.4273 46.9166 27.4799 47.0804 27.6476 47.2056C27.7229 47.2615 27.8022 47.2882 27.8789 47.2937C28.0117 47.3027 28.1364 47.2447 28.2139 47.1417C28.2511 47.0927 28.2779 47.0341 28.2901 46.9688C28.3028 46.903 28.3001 46.8304 28.2801 46.7528C28.2751 46.7338 28.2652 46.7165 28.2566 46.6993C28.8827 46.6412 29.5084 46.5895 30.1359 46.5532C32.1245 46.437 34.1186 46.4257 36.1108 46.4243C36.1167 46.3073 36.1208 46.1929 36.1249 46.0813C34.2383 46.0845 32.353 46.1008 30.4682 46.1916C28.5939 46.2809 26.734 46.521 24.8646 46.673Z" fill="white"/>
<path d="M24.8695 50.3818C22.51 50.5701 20.1468 50.7185 17.7832 50.8483C17.7751 50.8442 17.7665 50.8415 17.7583 50.8383C17.761 50.8424 17.7637 50.8455 17.7665 50.8496C17.8435 50.9572 17.9202 51.0679 17.9941 51.1813C19.4794 51.0978 20.9643 51.0066 22.4478 50.9036C22.2452 51.071 22.2456 51.3306 22.4877 51.5103C22.563 51.5652 22.6419 51.5924 22.7185 51.5978C22.8518 51.6069 22.9761 51.5484 23.054 51.4458C23.0908 51.3973 23.118 51.3387 23.1298 51.273C23.1425 51.2076 23.1402 51.135 23.1198 51.0574C23.0976 50.9739 23.0432 50.9109 22.9733 50.8678C23.6054 50.8229 24.237 50.7757 24.8695 50.7262C27.0757 50.5533 29.2702 50.2725 31.4805 50.1454C32.8874 50.0642 34.2957 50.0256 35.7053 50.007C35.7235 49.8927 35.7416 49.7797 35.7593 49.6667C34.332 49.6863 32.9056 49.7253 31.4805 49.8011C29.2702 49.9181 27.0753 50.2053 24.8695 50.3818Z" fill="white"/>
<path d="M71.9478 15.5429C71.9115 15.4994 71.8734 15.4558 71.8344 15.4113C71.5062 15.2525 71.2087 15.0434 70.9607 14.7684C70.9285 14.7339 70.8823 14.7897 70.9131 14.8242C71.2028 15.145 71.5542 15.3714 71.9478 15.5429Z" fill="white"/>
<path d="M62.5669 15.5492C62.9977 15.7339 63.5086 15.7602 63.88 16.0624C64.0391 16.1912 64.1797 16.3337 64.3511 16.448C64.507 16.5524 64.682 16.6191 64.8616 16.6694C65.3046 16.7947 65.762 16.7811 66.1746 17.0097C66.3492 17.1068 66.5011 17.2371 66.6507 17.3695C66.6825 17.3691 66.7151 17.3668 66.7468 17.3668C66.6017 17.2371 66.4594 17.1041 66.2993 17.0016C65.9452 16.7756 65.5603 16.7275 65.1545 16.6581C64.926 16.6191 64.7065 16.5574 64.4993 16.4517C64.2812 16.3405 64.1103 16.1649 63.9276 16.007C63.6039 15.728 63.1631 15.6948 62.7759 15.5528C62.3157 15.384 61.8972 15.1345 61.5672 14.7688C61.5359 14.7338 61.4887 14.7896 61.5196 14.8241C61.812 15.1481 62.1679 15.3777 62.5669 15.5492Z" fill="white"/>
<path d="M62.5668 11.032C62.8366 11.1477 63.1367 11.2017 63.4151 11.2993C63.5815 11.3578 63.7406 11.4322 63.8798 11.5452C64.039 11.6745 64.1795 11.8179 64.3509 11.9322C64.4289 11.9839 64.5114 12.0261 64.5976 12.0624C64.6828 12.0983 64.7712 12.1278 64.8615 12.1527C65.3044 12.2779 65.7619 12.2648 66.1745 12.493C66.5336 12.6927 66.7939 13.0311 67.1443 13.2444C67.5538 13.493 68.0684 13.425 68.5018 13.6047C68.7299 13.6995 68.884 13.8792 69.0722 14.0307C69.2078 14.1396 69.3719 14.2068 69.5365 14.258C69.9436 14.3837 70.5013 14.4422 70.8319 14.7281C70.9171 14.802 70.9253 14.7217 70.86 14.6618C70.7761 14.5838 70.6024 14.4164 70.4143 14.3592C70.1835 14.2893 69.9087 14.2685 69.7056 14.2254C69.5995 14.2031 69.4966 14.1723 69.3987 14.1314C69.3012 14.0901 69.2078 14.0393 69.1189 13.9744C69.0346 13.9136 68.9593 13.8433 68.8818 13.7757C68.8052 13.7077 68.7263 13.6419 68.6342 13.5888C68.4887 13.5053 68.3309 13.4595 68.169 13.4263C68.1146 13.415 68.0602 13.4055 68.0053 13.3968C67.7854 13.3615 67.5624 13.3356 67.3561 13.2625C66.9485 13.1178 66.6742 12.7339 66.3196 12.4998C66.3128 12.4948 66.3065 12.4898 66.2992 12.4858C66.2108 12.429 66.1206 12.3832 66.0285 12.3456C65.7515 12.2335 65.4586 12.1936 65.1544 12.1414C64.9258 12.1024 64.7064 12.0402 64.4992 11.9349C64.2811 11.8238 64.1102 11.6482 63.9274 11.4903C63.6037 11.2112 63.163 11.179 62.7758 11.0361C62.5269 10.9449 62.2907 10.8292 62.0739 10.6844C62.0322 10.6854 61.9914 10.6854 61.9497 10.6854C62.0535 10.7607 62.1619 10.8305 62.2762 10.8923C62.37 10.9426 62.4675 10.9894 62.5668 11.032Z" fill="white"/>
<path d="M56.707 16.8954C56.7447 16.9426 56.7814 16.9889 56.8199 17.0342C57.1591 17.2357 57.4139 17.556 57.7517 17.7611C58.0641 17.9512 58.4381 17.9576 58.7909 18.0293C58.867 18.0252 58.9505 18.0206 59.0375 18.0152C58.6943 17.8936 58.3062 17.9009 57.9625 17.7793C57.5476 17.6318 57.2706 17.2352 56.9065 17.0016C56.8408 16.9607 56.7746 16.9262 56.707 16.8954Z" fill="white"/>
<path d="M53.1742 11.032C53.443 11.1477 53.7441 11.2017 54.0216 11.2992C54.1889 11.3577 54.3476 11.4322 54.4863 11.5451C54.6454 11.6744 54.786 11.8178 54.9574 11.9322C55.0354 11.9839 55.1179 12.0261 55.204 12.0624C55.2902 12.0982 55.3786 12.1277 55.4679 12.1527C55.9109 12.2779 56.3684 12.2647 56.781 12.493C57.141 12.6926 57.4012 13.0311 57.7517 13.2443C58.1602 13.493 58.6757 13.4249 59.1083 13.6046C59.3373 13.6994 59.4914 13.8791 59.6787 14.0307C59.8151 14.1396 59.9784 14.2067 60.1434 14.258C60.5501 14.3837 61.1082 14.4422 61.4383 14.728C61.5236 14.802 61.5317 14.7217 61.4664 14.6618C61.383 14.5838 61.2094 14.4163 61.0212 14.3592C60.79 14.2893 60.5152 14.2684 60.3121 14.2253C60.206 14.2031 60.104 14.1722 60.006 14.1314C59.9076 14.0901 59.8142 14.0393 59.7263 13.9744C59.6415 13.9136 59.5658 13.8433 59.4891 13.7757C59.4121 13.7076 59.3332 13.6418 59.2407 13.5887C59.096 13.5052 58.9383 13.4594 58.7755 13.4263C58.7211 13.415 58.6667 13.4054 58.6118 13.3968C58.3919 13.3614 58.1697 13.3355 57.9625 13.2625C57.5549 13.1178 57.2806 12.7339 56.9265 12.4998C56.9193 12.4948 56.9134 12.4898 56.9066 12.4857C56.8177 12.429 56.727 12.3832 56.635 12.3455C56.3584 12.2334 56.0655 12.1935 55.7608 12.1413C55.5323 12.1023 55.3129 12.0402 55.1061 11.9349C54.8876 11.8237 54.7175 11.6481 54.5339 11.4902C54.2102 11.2112 53.7704 11.179 53.3827 11.036C53.2145 10.9748 53.0526 10.9022 52.898 10.8169C52.8531 10.8183 52.8087 10.8187 52.7643 10.8201C52.8042 10.8437 52.8423 10.87 52.8835 10.8922C52.9774 10.9426 53.074 10.9893 53.1742 11.032Z" fill="white"/>
<path d="M45.0935 11.5451C45.2522 11.6744 45.3923 11.8178 45.5637 11.9321C45.6417 11.9838 45.7251 12.026 45.8113 12.0623C45.8965 12.0982 45.9849 12.1277 46.0752 12.1526C46.5172 12.2778 46.9756 12.2647 47.3873 12.4929C47.7473 12.6925 48.0076 13.031 48.358 13.2443C48.7665 13.4929 49.2821 13.4249 49.7146 13.6045C49.8357 13.6549 49.935 13.7284 50.0297 13.8092C50.0628 13.8078 50.0955 13.8065 50.1286 13.8042C50.1177 13.7951 50.1064 13.7847 50.0955 13.7756C50.0184 13.7075 49.94 13.6417 49.8479 13.5887C49.7024 13.5052 49.5446 13.4594 49.3823 13.4262C49.3283 13.4149 49.2735 13.4054 49.219 13.3967C48.9991 13.3613 48.7761 13.3355 48.5698 13.2624C48.1622 13.1177 47.8874 12.7338 47.5333 12.4997C47.5265 12.4947 47.5197 12.4897 47.5129 12.4856C47.4245 12.4289 47.3333 12.3831 47.2413 12.3454C46.9647 12.2334 46.6723 12.1934 46.3676 12.1413C46.1395 12.1022 45.9201 12.0401 45.7124 11.9348C45.4948 11.8237 45.3239 11.6481 45.1407 11.4902C44.8759 11.2615 44.534 11.1975 44.2058 11.1045C44.14 11.1081 44.0729 11.1113 44.0085 11.1149C44.2135 11.1798 44.4266 11.2284 44.6288 11.2991C44.7952 11.3577 44.9539 11.4321 45.0935 11.5451Z" fill="white"/>
<path d="M40.322 13.6046C40.5505 13.6995 40.7042 13.8791 40.8924 14.0307C40.8978 14.0343 40.9046 14.0384 40.9101 14.0425C40.9481 14.0379 40.9871 14.0339 41.0248 14.0293C40.9967 14.0116 40.9667 13.9948 40.9395 13.9744C40.8547 13.9136 40.7795 13.8433 40.7024 13.7757C40.6258 13.7076 40.5464 13.6418 40.4544 13.5888C40.3093 13.5053 40.152 13.4594 39.9892 13.4263C39.9348 13.415 39.8804 13.4054 39.8255 13.3968C39.6056 13.3614 39.3825 13.3356 39.1763 13.2625C39.0139 13.2044 38.8729 13.1083 38.7392 12.9989C38.7301 13.0202 38.7224 13.042 38.7142 13.0633C38.794 13.1291 38.8766 13.1904 38.965 13.2444C39.3739 13.493 39.8885 13.425 40.322 13.6046Z" fill="white"/>
<path d="M74.3045 35.5731C74.095 37.2143 72.762 37.9239 71.6929 38.0877C70.4959 38.3118 68.9725 37.4888 69.0269 35.5423C69.0867 33.4016 70.5031 32.4397 71.8556 32.4868C73.0272 32.5272 74.5466 33.6724 74.3045 35.5731ZM68.2579 34.0332C68.1845 34.2578 68.1246 34.4964 68.0806 34.7501C68.0366 35.001 68.0085 35.2664 67.9963 35.5468C67.9958 35.5758 67.9931 35.6049 67.9922 35.6344C67.9165 38.3409 70.0348 39.4856 71.6992 39.1735C72.1431 39.1054 72.6201 38.9675 73.0785 38.7497C73.7867 38.4126 74.4491 37.8785 74.8776 37.0958C75.0988 36.6916 75.2593 36.2229 75.3292 35.6779C75.4307 34.8789 75.3079 34.177 75.0431 33.5835C74.9397 33.3517 74.8141 33.1366 74.6722 32.9388C73.9739 31.9696 72.869 31.4201 71.9255 31.387C70.4247 31.3353 68.8677 32.1779 68.2579 34.0332Z" fill="white"/>
<path d="M42.3844 56.8633C41.1059 56.823 39.766 57.6583 39.7098 59.5172C39.6586 61.2078 41.0986 61.9238 42.2307 61.7287C43.2414 61.5867 44.5014 60.97 44.7 59.5449C44.9289 57.8938 43.4926 56.8983 42.3844 56.8633Z" fill="#5FC0DE"/>
<path d="M61.7285 56.8633C60.4494 56.823 59.1101 57.6583 59.0538 59.5172C59.0022 61.2078 60.4426 61.9238 61.5739 61.7287C62.5849 61.5867 63.8449 60.97 64.0431 59.5449C64.2721 57.8938 62.8357 56.8983 61.7285 56.8633Z" fill="#5FC0DE"/>
<path d="M74.674 53.9815C74.5539 53.7106 74.4269 53.4248 74.2941 53.1262C74.0714 52.6258 73.8339 52.0904 73.5836 51.53C73.5314 51.4125 73.4788 51.2936 73.4253 51.1738C73.2943 50.8784 73.1606 50.5776 73.0241 50.2718C72.4328 48.9456 71.8031 47.5335 71.1873 46.1551C71.1302 46.0258 71.0722 45.8974 71.0151 45.769C70.8151 45.3212 70.6161 44.877 70.422 44.4427C70.4143 44.45 70.4084 44.4586 70.3975 44.4609C69.8802 44.5702 70.0203 43.7499 69.0255 43.9831C67.9986 44.224 68.3164 45.1456 67.9863 45.1192C68.3028 45.8552 68.6302 46.6088 68.9598 47.3629C69.0088 47.4746 69.0573 47.5862 69.1062 47.6978C69.7029 49.0585 70.3023 50.4084 70.8527 51.638C71.322 52.6861 71.755 53.6453 72.1205 54.4484C72.2674 54.7719 72.4038 55.0705 72.5267 55.3382C72.8572 56.0591 73.0939 56.5641 73.1927 56.7642C73.8833 58.1545 76.2899 57.6844 75.8964 56.7502C75.8062 56.536 75.3419 55.4856 74.674 53.9815Z" fill="white"/>
<path d="M66.8913 35.8087C66.603 35.4979 66.1936 35.301 65.7451 35.3037C64.9531 35.3078 64.2866 35.9285 64.2031 36.7021C64.1968 36.7584 64.1936 36.8156 64.1936 36.8736L64.1941 36.978C64.1968 37.5651 64.5382 38.0833 65.0288 38.3474C65.2491 38.4649 65.4989 38.532 65.7619 38.5307C66.5064 38.5266 67.1389 37.9794 67.2831 37.2725C67.3035 37.1713 67.3139 37.0674 67.313 36.9617V36.8573C67.3103 36.4553 67.1493 36.0864 66.8913 35.8087Z" fill="white"/>
<path d="M61.7044 48.8272C60.8062 46.6811 59.7511 44.6144 58.3496 42.8217C56.3352 42.7491 53.1196 43.142 51.2498 43.3807C50.0855 43.5299 44.9471 43.039 42.861 43.5313C43.9555 45.4982 44.6084 47.761 45.6984 49.7374C48.0248 49.8164 51.3917 49.8059 53.4334 49.7048C55.7213 49.5918 58.0091 49.4788 60.1918 49.1408C60.7663 49.0841 61.3403 49.055 61.7044 48.8272Z" fill="white"/>
<path d="M11.8423 49.9983C10.7165 49.4343 8.69933 49.0477 6.737 49.0695C5.36637 49.084 4.02203 49.2982 3.02545 49.7905C2.42333 50.0876 2.22837 51.0609 2.3118 51.9271C2.39704 52.82 2.77835 53.5995 3.31517 53.4076C4.37342 53.0287 7.27292 52.57 8.7229 53.0165C12.7781 54.2656 13.402 59.9903 13.6101 60.9273C13.8069 62.0117 15.9388 61.6954 16.959 61.2167C17.0156 61.1895 17.0696 61.1627 17.1195 61.1351C19.303 60.0942 17.6649 57.0075 17.1453 55.2379C16.5214 52.8436 14.0259 51.143 11.8423 49.9983Z" fill="white"/>
<path d="M23.7198 11.3704C23.4863 11.5169 23.2827 11.6245 23.1031 11.6739C23.1657 11.7919 23.2269 11.9112 23.2895 12.0296C24.3019 13.9544 25.4178 15.8396 26.4647 17.7566C26.7172 17.7407 26.9707 17.7253 27.225 17.7108C26.1038 15.6332 24.8896 13.5959 23.795 11.5151C23.7706 11.4666 23.7447 11.418 23.7198 11.3704Z" fill="#100F0D"/>
<path d="M72.1205 54.4486C71.6911 54.8782 71.3678 55.3642 71.2014 55.9055C71.1502 56.0702 71.1139 56.2399 71.094 56.4146C71.0718 56.601 71.0681 56.793 71.0845 56.9903C71.0953 57.1201 71.1148 57.2526 71.1429 57.3878C71.1738 57.5371 71.2146 57.6895 71.2685 57.8456C71.4544 58.3066 71.7038 58.7154 72.0021 59.0657C72.091 59.1701 72.1844 59.269 72.281 59.3624C72.4551 59.5294 72.641 59.6801 72.8378 59.8116C72.9375 59.8774 73.0404 59.9387 73.1452 59.9959C73.7786 60.3389 74.5008 60.5031 75.2508 60.4532C75.3877 60.4446 75.5255 60.4283 75.6638 60.4047C75.774 60.3865 75.8842 60.3634 75.9943 60.3357C76.1059 60.3076 76.2174 60.2744 76.329 60.2368C76.3362 60.2341 76.3444 60.2322 76.3521 60.2295C77.4865 59.8008 78.1485 58.9459 78.4132 57.9704C78.4708 57.7562 78.5107 57.5371 78.5316 57.3143C78.6277 56.2798 78.3285 55.1877 77.7132 54.3633C77.6397 54.2643 77.5604 54.1695 77.4779 54.0792C77.3886 53.9812 77.2947 53.8882 77.195 53.8015C77.0948 53.714 76.99 53.6327 76.8807 53.5574C76.2315 53.1141 75.4144 52.9009 74.4646 53.0669L74.2941 53.1264C74.4269 53.4249 74.5539 53.7103 74.674 53.9817C77.7005 53.5783 78.8639 58.3093 75.9826 59.396C74.3893 59.9482 72.7811 59.1669 72.1495 57.5997C71.843 56.714 72.0411 55.9599 72.5276 55.3383C72.4039 55.0706 72.2674 54.7721 72.1205 54.4486Z" fill="#100F0D"/>
<path d="M7.83438 46.3099C7.05499 45.1892 7.21005 43.5802 7.57504 42.3316C7.71877 41.8384 7.97403 41.4187 8.2769 41.0294C7.99761 40.9972 7.73191 40.96 7.49615 40.9182C7.16426 41.4033 6.96068 41.9359 6.81105 42.5131C6.48188 43.7767 6.46012 45.2908 7.11529 46.4514C7.26174 46.3607 7.50839 46.3144 7.83438 46.3099Z" fill="#100F0D"/>
<path d="M9.83709 46.5626C9.10076 45.2699 8.69769 43.5353 9.46167 42.2254C9.69109 41.8302 9.96812 41.4668 10.2592 41.1119C9.97265 41.1242 9.67567 41.1242 9.37688 41.1128C9.07854 41.508 8.8124 41.9228 8.62696 42.3833C8.1196 43.6397 8.38257 45.1515 8.97426 46.4033C9.24494 46.4442 9.53467 46.4982 9.83709 46.5626Z" fill="#100F0D"/>
<path d="M67.0034 50.1799C67.3911 49.325 67.8944 48.5301 68.4706 47.8754C68.6234 47.702 68.788 47.5314 68.9598 47.3631C68.6302 46.6086 68.3029 45.8554 67.9864 45.1194C67.9615 45.1176 67.9338 45.1112 67.9002 45.0981C67.5139 44.9411 65.684 40.3294 65.0289 38.3475C64.5383 38.0834 64.1969 37.5657 64.1937 36.9781V36.8738C64.1932 36.8157 64.1969 36.7585 64.2032 36.7023C63.5032 36.9368 62.8017 37.1601 62.0953 37.3602C64.054 40.5077 66.1392 43.7709 66.4312 44.6144C66.5854 45.0636 66.8624 47.3336 67.0034 50.1799Z" fill="#100F0D"/>
<path d="M67.9922 35.6343C67.9936 35.6048 67.9958 35.5758 67.9972 35.5468C67.6309 35.6153 67.2627 35.7042 66.8914 35.809C67.1493 36.0867 67.3112 36.4556 67.313 36.8576V36.9619C67.3139 37.0677 67.3035 37.1716 67.2831 37.2727C67.3452 37.3608 67.401 37.4551 67.4463 37.555C67.5275 37.736 68.2035 39.0618 68.8927 40.5042C70.2284 40.4661 72.0969 40.4969 73.7418 40.5237C73.4838 39.8558 73.2598 39.2574 73.0785 38.7496C72.6201 38.9674 72.1431 39.1054 71.6992 39.1734C70.0348 39.4856 67.917 38.3408 67.9922 35.6343Z" fill="#100F0D"/>
<path d="M45.6112 40.8291C51.315 40.7274 59.0174 40.486 59.0174 40.486L57.99 38.1602C57.2038 38.231 56.4085 38.25 55.5983 38.197C51.9189 37.9547 47.228 34.9959 43.2708 35.6289C44.0851 37.0304 44.6319 38.7646 45.219 40.006C45.346 40.2778 45.4779 40.5536 45.6112 40.8291Z" fill="#100F0D"/>
<mask id="mask0_191_3646" style="mask-type:luminance" maskUnits="userSpaceOnUse" x="66" y="43" width="20" height="27">
<path d="M66.2444 43.2164H86V69.1085H66.2444V43.2164Z" fill="white"/>
</mask>
<g mask="url(#mask0_191_3646)">
<path d="M84.7592 50.3324C83.6479 48.2053 81.1828 45.9983 78.3009 45.0696C77.3592 44.7665 76.3735 44.599 75.3756 44.6163C75.1879 44.1562 75.0034 43.7029 74.8247 43.261C73.3738 43.2773 71.6414 43.3767 70.1814 43.3957C70.4 43.9652 70.5065 44.3608 70.4222 44.443C70.6162 44.8781 70.8144 45.3214 71.0152 45.7692C72.1777 45.0609 73.4704 44.555 74.7027 44.4443C74.9236 44.4239 74.9217 44.7683 74.7027 44.7887C73.4296 44.903 72.2494 45.4657 71.188 46.1553C71.8032 47.5338 72.433 48.9462 73.0243 50.272C73.3548 50.1727 73.6948 50.11 74.0367 50.0864C74.1881 50.0765 74.3382 50.0728 74.4887 50.0769C74.6642 50.081 74.8383 50.096 75.0111 50.1182C76.2425 50.2766 77.405 50.8687 78.3073 51.6246C78.9239 52.1409 79.4199 52.7335 79.7314 53.3161C80.1549 54.1069 80.3771 55.2195 80.3939 56.4305C80.3988 56.7762 80.3866 57.1301 80.3576 57.4872C80.349 57.5989 80.3381 57.71 80.3263 57.8216C80.2732 58.3003 80.1898 58.7813 80.0756 59.2522C80.032 59.4346 79.9826 59.6148 79.9296 59.7931C79.458 61.3703 78.6265 62.7709 77.4218 63.4996C77.3221 63.56 77.2196 63.6144 77.1144 63.6648C76.4044 64.0091 75.5769 64.1285 74.6288 63.9352C74.4969 63.9089 74.3627 63.8753 74.2262 63.8363C73.8209 63.7201 73.3965 63.5504 72.9503 63.3172C72.2362 62.9447 71.591 62.4066 71.0429 61.7537C70.9672 61.6634 70.8933 61.5717 70.8212 61.4769C70.6983 61.3158 70.5804 61.1479 70.4698 60.9751C70.4004 60.8675 70.3347 60.7573 70.2703 60.6466C69.6831 59.6266 69.2995 58.4451 69.1912 57.2136C69.1812 57.0979 69.1735 56.9818 69.1685 56.8652C69.1536 56.5276 69.1576 56.1873 69.1857 55.8461C69.188 55.8139 69.1912 55.7803 69.193 55.7472C69.2048 55.5652 69.2234 55.3797 69.2483 55.1932C69.4197 53.9422 69.9203 52.6332 70.8534 51.6382C70.3025 50.4086 69.704 49.0587 69.1073 47.698C68.9695 47.8328 68.8366 47.9712 68.7147 48.1186C68.0287 48.9526 67.4361 49.9553 67.0412 51.0184C67.1794 54.6351 67.0761 58.9387 66.2559 61.6325C66.7904 63.7646 67.9711 65.5595 70.2771 67.2692C74.7952 70.62 80.0071 68.8813 82.8499 66.1244C86.5506 62.5354 86.7197 54.0834 84.7592 50.3324Z" fill="#100F0D"/>
</g>
<path d="M40.91 14.0425C40.569 14.0842 40.2394 14.1328 39.9229 14.19C38.9862 15.1178 38.1066 16.2041 37.6849 17.3847C37.9443 17.3824 38.2023 17.3806 38.458 17.3797C38.9916 16.0934 40.0567 14.9627 41.104 14.0203C41.0777 14.023 41.051 14.0266 41.0247 14.0293C40.9862 14.0339 40.9481 14.038 40.91 14.0425Z" fill="#100F0D"/>
<path d="M38.229 22.014L37.5194 22.0218C37.6128 23.1647 37.7484 24.3058 37.8586 25.4279C38.1038 27.9298 38.385 30.4276 38.6865 32.9235C38.9218 32.9403 39.1548 32.9653 39.3847 32.997C39.1022 30.6521 38.837 28.3059 38.599 25.9565C38.467 24.6484 38.3256 23.3321 38.229 22.014Z" fill="#100F0D"/>
<mask id="mask1_191_3646" style="mask-type:luminance" maskUnits="userSpaceOnUse" x="0" y="51" width="18" height="19">
<path d="M0 51.9211H17.1463V69.1084H0V51.9211Z" fill="white"/>
</mask>
<g mask="url(#mask1_191_3646)">
<path d="M7.50879 64.7671C5.77634 64.2594 4.24475 62.4426 3.9378 60.2548C3.68933 58.831 3.96092 57.0156 5.34289 55.9679C5.60632 55.7678 5.89967 55.6181 6.20571 55.5174C7.76043 55.006 9.55863 55.8164 10.3838 56.8078C12.1417 58.9199 13.394 66.4881 7.50879 64.7671ZM13.6102 60.9272C13.4021 59.9902 12.7782 54.2655 8.723 53.0164C7.27302 52.5699 4.37352 53.0287 3.31527 53.4075C2.77845 53.5995 2.39714 52.8199 2.3119 51.927C0.129216 54.0296 -0.28746 57.2524 0.161408 59.8251C0.7667 64.1242 3.71427 67.9282 7.17962 68.6914C13.9476 70.1819 16.6766 67.185 17.0017 63.3183C17.0597 62.6382 17.0416 61.9308 16.9591 61.2167C15.9389 61.6954 13.807 62.0116 13.6102 60.9272Z" fill="#100F0D"/>
</g>
<path d="M52.5448 21.366C52.781 21.8061 53.0131 22.249 53.2407 22.6932C53.4434 23.0884 54.0374 22.7394 53.8347 22.3452C53.5885 21.8669 53.3428 21.3869 53.0875 20.9123C52.8739 20.5153 52.6536 20.1219 52.4178 19.7389C52.304 19.5561 53.2951 18.1749 53.4774 17.9045C54.1217 16.9485 54.8149 16.0224 55.5277 15.1141C55.423 14.9425 55.3323 14.7969 55.2588 14.6944C55.2126 14.6404 55.1604 14.5905 55.1051 14.5424C54.2659 15.6077 53.4538 16.6971 52.7039 17.8242C52.4749 18.1695 52.0614 18.6972 51.8606 19.2126C51.764 19.4608 51.7164 19.7063 51.7631 19.9259C51.866 20.4082 52.3117 20.9341 52.5448 21.366Z" fill="#100F0D"/>
<path d="M75.9635 32.188C76.397 31.5551 76.7593 31.1721 77.394 31.0056C77.4443 31.4217 77.5672 31.8341 77.9213 32.0896C78.6409 32.6082 79.1188 31.7552 79.1482 31.1717C80.0981 31.1526 81.5658 31.1091 82.3969 31.0083C83.5122 30.8731 83.8246 30.3586 83.5358 29.6753C83.2461 28.9924 82.3914 29.129 81.2216 29.3368C80.7542 29.4203 79.5468 29.5419 78.786 29.614C78.7175 29.4734 78.6395 29.3441 78.5511 29.2406C78.3239 28.9743 78.031 28.8672 77.6688 29.1068C77.341 29.3232 77.3129 29.83 77.3351 30.2724C76.8672 30.3922 76.4401 30.5886 76.1014 30.9167C75.5704 31.4312 75.142 32.2048 74.6722 32.9385C74.8146 33.1363 74.9397 33.3514 75.0431 33.5833C75.3782 33.1005 75.6779 32.6055 75.9635 32.188Z" fill="#100F0D"/>
<path d="M65.0073 33.4436C65.9949 33.8483 67.025 34.3361 68.0805 34.7499C68.1245 34.4962 68.1843 34.2576 68.2578 34.033C67.0771 33.5897 65.9228 33.0751 64.7539 32.6024C63.8027 32.2167 62.8868 31.8945 61.882 31.7879C61.7877 31.3673 61.6204 30.8972 61.3756 30.61C61.1484 30.3446 60.8555 30.2366 60.4942 30.4771C60.2666 30.6277 60.1831 30.9172 60.16 31.2294C59.6114 31.2139 58.9376 31.1903 58.5087 31.1595C58.4108 31.1527 58.3256 31.1454 58.2566 31.1373C57.1925 31.0143 56.4145 30.9394 56.1519 31.6436C55.8885 32.3474 56.1728 32.8397 57.188 32.8941C57.747 32.9236 58.623 32.8973 59.3911 32.861C59.7297 32.8451 60.048 32.8274 60.3078 32.8115C60.3872 33.0647 60.5182 33.2957 60.7463 33.4599C61.483 33.9903 61.9677 33.0829 61.9754 32.4998C61.9754 32.4926 61.975 32.4844 61.975 32.4776C63.0305 32.5906 64.0334 33.0452 65.0073 33.4436Z" fill="#100F0D"/>
<path d="M8.4827 61.1446C7.23403 62.0366 5.91191 59.537 7.41404 58.9213C8.00074 58.718 8.64593 58.9258 8.87626 59.5293C9.08528 60.0747 8.97419 60.7929 8.4827 61.1446ZM7.36099 58.5774C7.3492 58.5792 7.33605 58.5833 7.3229 58.5887C5.57776 59.3042 6.56436 62.0302 8.36029 61.5702C9.2222 61.3496 9.40946 60.3179 9.24759 59.5719C9.06306 58.7194 8.15263 58.3251 7.36099 58.5774Z" fill="#100F0D"/>
<path d="M8.27413 62.5279C8.00209 62.743 8.17529 63.9685 8.59332 64.116C9.03857 64.2721 8.9769 63.6604 8.78194 63.1468C8.63413 62.7552 8.40924 62.4208 8.27413 62.5279Z" fill="#100F0D"/>
<path d="M10.3172 61.9661C9.96994 61.7419 9.61856 61.6271 9.6172 61.8236C9.61402 62.2202 10.5426 63.1449 10.8718 62.9493C11.2236 62.7411 10.7738 62.2601 10.3172 61.9661Z" fill="#100F0D"/>
<path d="M9.8765 60.178C10.144 60.5228 11.2834 60.6059 11.3328 60.1826C11.3845 59.7306 10.8091 59.6626 10.3589 59.761C10.0152 59.8354 9.7441 60.007 9.8765 60.178Z" fill="#100F0D"/>
<path d="M9.7047 57.4368C9.42586 57.0071 9.06359 57.3909 8.88313 57.8233C8.74439 58.1536 8.71175 58.5107 8.90127 58.5566C9.28258 58.6482 9.96586 57.8397 9.7047 57.4368Z" fill="#100F0D"/>
<path d="M7.2617 57.9077C7.53374 57.6922 7.36054 56.4671 6.9425 56.3201C6.49726 56.1635 6.55893 56.7756 6.75389 57.2888C6.9017 57.6804 7.12659 58.0143 7.2617 57.9077Z" fill="#100F0D"/>
<path d="M5.91871 58.6124C5.92188 58.2158 4.99331 57.2916 4.66414 57.4867C4.3123 57.6949 4.76253 58.1759 5.21865 58.4699C5.56596 58.6936 5.91735 58.8093 5.91871 58.6124Z" fill="#100F0D"/>
<path d="M4.2034 60.2527C4.15217 60.7051 4.72572 60.7727 5.17685 60.6747C5.52008 60.5998 5.79167 60.4292 5.65927 60.2577C5.39131 59.9124 4.25146 59.8298 4.2034 60.2527Z" fill="#100F0D"/>
<path d="M6.63451 61.8797C6.2532 61.7876 5.56992 62.5961 5.83108 62.999C6.10993 63.4292 6.4722 63.0449 6.65265 62.612C6.79139 62.2821 6.82404 61.9251 6.63451 61.8797Z" fill="#100F0D"/>
<path d="M49.2209 44.3341C49.1243 44.1058 48.7244 44.1099 48.6269 44.3341C48.3322 45.007 48.0402 45.6853 47.7246 46.3491C46.7616 45.9802 45.9133 45.09 45.2237 44.3708C44.9997 44.1367 44.5145 44.3763 44.6492 44.7057C45.2096 46.075 45.77 47.4453 46.3304 48.8147C46.4964 49.2203 47.1624 49.0424 46.9937 48.6318C46.6347 47.7547 46.276 46.8777 45.9174 46.0006C46.4923 46.4934 47.1289 46.9194 47.8126 47.1036C47.9531 47.1413 48.1336 47.0828 48.2012 46.9453C48.4542 46.4276 48.6881 45.9003 48.9193 45.3718C49.4444 46.6118 49.9708 47.8523 50.4967 49.0923C50.6695 49.4998 51.2621 49.1481 51.0907 48.7448C50.4673 47.2742 49.8438 45.8042 49.2209 44.3341Z" fill="white"/>
<path d="M54.2505 43.9787C54.0777 43.5703 53.4852 43.9219 53.6565 44.3258C54.104 45.3825 54.5516 46.4383 54.9995 47.4942C53.6788 46.4696 52.358 45.4447 51.0368 44.4197C50.7271 44.1797 50.3277 44.4691 50.4968 44.8376C51.0948 46.1389 51.6919 47.4397 52.29 48.741C52.4754 49.1439 53.068 48.7936 52.8848 48.3935C52.4854 47.525 52.0873 46.6575 51.6879 45.79C52.986 46.7968 54.284 47.8036 55.5821 48.8104C55.8982 49.0559 56.2781 48.7614 56.1226 48.3935C55.4983 46.922 54.8748 45.4501 54.2505 43.9787Z" fill="white"/>
<path d="M60.2182 47.6459C59.5531 47.7262 58.887 47.8069 58.2219 47.8872C58.0138 47.9126 57.8057 47.9376 57.598 47.963C57.5636 47.8832 57.5296 47.8038 57.4951 47.7243C56.9587 46.4761 56.4233 45.227 55.8873 43.9788C55.7119 43.5714 55.1193 43.923 55.2925 44.3259C55.8914 45.7193 56.4895 47.1132 57.0879 48.5066C57.1297 48.6046 57.2793 48.6903 57.3849 48.6772C58.3289 48.5628 59.2733 48.4485 60.2182 48.3342C60.653 48.282 60.6585 47.5923 60.2182 47.6459Z" fill="white"/>
</svg>
